<?xml version="1.0" standalone="no"?>
<!DOCTYPE svg PUBLIC "-//W3C//DTD SVG 20010904//EN"
 "http://www.w3.org/TR/2001/REC-SVG-20010904/DTD/svg10.dtd">
<svg version="1.0" xmlns="http://www.w3.org/2000/svg"
 width="1024.000000pt" height="1024.000000pt" viewBox="0 0 1024.000000 1024.000000"
 preserveAspectRatio="xMidYMid meet">

<g transform="translate(0.000000,1024.000000) scale(0.100000,-0.100000)"
fill="#000000" stroke="none">
<path d="M5405 8911 c17 -5 59 -17 95 -26 124 -31 282 -125 386 -229 69 -70
104 -119 163 -229 47 -88 45 -113 -12 -119 -28 -3 -32 -7 -35 -36 l-3 -32 -60
52 c-115 102 -321 199 -472 223 -42 7 -56 28 -39 56 15 23 15 52 2 65 -5 5
-16 50 -23 99 l-13 90 -12 -89 c-7 -48 -20 -99 -29 -112 -14 -23 -14 -26 2
-44 28 -31 13 -48 -52 -55 -126 -14 -113 -20 -142 69 -31 95 -37 98 -162 89
-69 -5 -92 -10 -97 -22 -3 -8 -20 -69 -36 -136 l-31 -120 -80 -11 c-60 -9 -82
-9 -88 0 -4 6 -34 57 -67 113 -33 56 -63 104 -67 106 -5 3 -55 -7 -113 -21
-123 -32 -118 -23 -119 -193 l-1 -115 -77 -31 -78 -31 -98 97 -98 96 -97 -50
c-113 -59 -109 -45 -68 -223 l23 -103 -68 -50 -67 -50 -69 44 c-37 24 -89 56
-115 71 l-47 27 -80 -71 c-45 -39 -81 -75 -81 -79 0 -5 20 -51 45 -103 25 -53
45 -97 45 -100 0 -2 -32 -33 -71 -67 l-71 -64 -185 184 c-101 101 -195 202
-209 225 -13 22 -35 47 -49 54 -30 16 -32 23 -45 163 -10 112 -17 138 -30 117
-4 -7 -13 0 -22 21 -14 29 -17 30 -27 13 -9 -17 -11 -15 -9 11 2 45 -33 104
-111 185 -39 40 -71 78 -71 84 0 11 -35 46 -45 46 -2 0 -6 -48 -8 -107 l-3
-108 -2 116 c-1 84 -6 118 -15 122 -7 2 -35 46 -62 96 -28 50 -54 91 -59 91
-9 0 -2 -185 11 -304 l6 -58 -31 16 c-28 14 -32 14 -46 0 -19 -18 -20 -28 -5
-56 6 -11 9 -21 7 -24 -2 -2 -62 6 -133 17 -71 11 -149 19 -173 17 l-44 -3 88
-60 c49 -33 108 -81 132 -107 24 -26 48 -48 53 -48 5 0 41 -33 80 -74 52 -55
82 -79 119 -92 27 -10 47 -21 45 -25 -3 -4 8 -21 24 -38 27 -29 38 -33 123
-42 130 -14 151 -21 166 -52 7 -15 23 -32 35 -38 23 -12 367 -349 367 -360 0
-4 -21 -1 -47 7 -43 13 -49 13 -64 -3 -29 -30 -109 -157 -109 -173 0 -8 14
-31 29 -50 l29 -34 -47 -61 c-26 -33 -67 -88 -91 -122 -25 -36 -50 -63 -60
-63 -24 0 -33 -13 -70 -110 -27 -72 -75 -176 -86 -188 -4 -6 -93 56 -140 97
-23 20 -52 43 -65 52 -19 12 -32 44 -57 131 -34 118 -45 140 -66 132 -7 -3
-18 7 -26 21 -17 31 -27 32 -33 3 -3 -18 -5 -17 -6 7 -1 17 -14 44 -29 61 -35
39 -147 124 -164 124 -7 0 -21 14 -30 30 -9 17 -23 30 -31 30 -8 0 -20 7 -27
15 -7 8 -18 14 -25 13 -6 -2 -45 34 -85 80 -41 45 -77 79 -82 74 -4 -4 15 -81
42 -171 28 -90 50 -165 50 -166 0 -2 -13 2 -29 8 -23 8 -33 8 -45 -2 -21 -17
-20 -27 3 -60 l20 -28 -161 -12 c-150 -11 -203 -21 -182 -33 5 -3 52 -22 104
-43 52 -21 100 -43 105 -49 35 -38 80 -59 129 -58 67 0 156 9 179 17 9 4 17 3
17 -3 0 -14 -49 -24 -131 -25 -38 -1 -69 -4 -69 -8 0 -14 145 -96 179 -103 19
-3 40 -14 48 -24 10 -12 16 -14 19 -4 3 6 10 12 15 12 6 0 7 -5 4 -11 -9 -14
35 -50 54 -45 9 2 64 7 122 11 l106 7 22 -31 c12 -17 30 -31 40 -31 15 0 171
-104 171 -114 0 -2 -15 -36 -34 -77 -18 -41 -57 -146 -86 -234 -29 -88 -55
-166 -59 -173 -4 -7 -17 9 -35 44 -21 45 -25 59 -14 65 10 7 10 9 -2 9 -9 0
-16 8 -16 19 0 12 5 17 14 13 10 -3 13 2 10 19 -2 13 4 30 12 36 13 11 13 14
0 23 -13 8 -12 10 3 10 12 0 16 4 11 12 -5 7 -8 32 -9 56 0 37 -6 49 -33 73
l-32 29 -218 1 c-349 1 -347 2 -379 -65 -28 -59 10 -131 77 -145 19 -4 34 -13
33 -19 -4 -15 28 -52 44 -52 7 0 13 -4 13 -9 0 -5 7 -8 16 -7 18 1 141 -195
262 -418 l75 -138 4 -109 c3 -85 1 -109 -9 -110 -7 0 -24 -2 -38 -3 -14 -1
-70 -6 -125 -10 -175 -12 -181 -20 -20 -27 83 -3 157 -9 166 -13 18 -8 33 -56
18 -56 -5 0 -6 -13 -3 -30 6 -26 4 -30 -15 -30 -17 0 -21 -4 -16 -19 8 -26
-31 -33 -248 -40 -105 -4 -178 -10 -180 -16 -2 -9 123 -21 261 -24 38 -1 52
-5 50 -13 -3 -7 -18 -15 -34 -16 -15 -2 -45 -19 -66 -38 -21 -18 -48 -36 -60
-39 -47 -10 -237 -35 -279 -36 l-44 -2 55 -7 c30 -4 143 -11 250 -15 190 -8
244 -17 246 -42 3 -42 5 -45 19 -39 9 3 18 -1 21 -9 4 -8 11 -12 16 -9 6 4 6
-1 0 -13 -6 -10 -28 -28 -49 -38 -73 -37 -159 -103 -206 -158 -50 -59 -117
-177 -137 -242 -7 -22 -16 -44 -21 -49 -4 -5 -46 16 -95 48 -84 54 -114 66
-114 46 0 -5 -13 -7 -32 -3 -26 5 -30 4 -25 -10 5 -14 -1 -13 -34 5 -36 19
-51 20 -137 14 -53 -4 -99 -11 -102 -16 -3 -5 -11 -5 -20 0 -21 14 -70 12 -70
-2 0 -15 81 -92 130 -123 22 -14 40 -28 40 -30 0 -7 -55 22 -72 37 -7 8 -34
31 -60 52 -27 21 -48 44 -48 50 0 8 -11 11 -28 8 -16 -2 -70 4 -122 12 -140
25 -138 20 45 -102 134 -90 134 -90 105 -101 -42 -14 -42 -58 -1 -74 l30 -11
-115 -118 c-104 -108 -134 -148 -101 -136 6 3 50 18 97 33 47 15 91 33 99 39
10 8 15 8 18 0 4 -13 65 -9 93 6 11 6 25 8 30 5 5 -3 11 -1 15 5 4 6 9 9 13 6
16 -9 144 15 186 34 25 12 51 20 58 17 21 -7 68 22 68 42 0 10 6 24 14 30 11
9 12 6 8 -14 -2 -14 -8 -28 -13 -31 -5 -3 -9 -9 -9 -15 0 -21 23 -6 75 49 l55
57 0 -61 c0 -131 60 -290 154 -412 30 -39 51 -74 48 -78 -4 -4 -2 -4 5 0 7 4
17 -3 24 -16 17 -32 35 -48 54 -48 9 0 15 -6 14 -12 -4 -36 10 -46 75 -54 17
-2 32 -7 35 -12 3 -4 15 -9 26 -10 11 -2 23 -8 26 -14 3 -5 10 -10 15 -9 5 0
9 -9 8 -20 0 -13 3 -16 10 -9 12 12 136 14 136 2 0 -5 7 -9 15 -9 8 0 12 4 9
9 -3 4 2 8 10 8 8 0 20 -10 27 -21 6 -12 14 -17 18 -12 3 5 33 9 66 8 34 -1
72 5 89 13 25 12 28 12 23 -1 -4 -12 -1 -12 18 -3 13 6 22 13 20 16 -2 3 5 7
16 7 18 2 19 0 7 -14 -11 -15 -10 -16 12 -9 56 17 88 16 105 -1 17 -16 17 -16
11 5 -8 23 0 27 21 14 17 -11 -5 -53 -36 -68 -13 -7 -26 -16 -30 -21 -3 -5
-64 -53 -134 -106 -71 -54 -145 -111 -165 -127 -20 -16 -49 -32 -64 -35 -14
-4 -41 -22 -58 -42 -30 -32 -35 -34 -78 -29 -26 3 -84 8 -129 12 -80 6 -83 5
-83 -15 0 -14 -6 -21 -19 -21 -11 0 -23 -9 -26 -20 -4 -11 -11 -18 -16 -15
-24 15 -174 -62 -237 -122 -7 -7 -21 -13 -30 -13 -17 -1 -68 -37 -61 -44 2 -2
38 -10 79 -18 44 -9 63 -16 45 -17 -17 0 -54 5 -82 12 -39 11 -54 11 -67 2 -9
-7 -57 -27 -106 -44 -50 -18 -90 -36 -90 -41 0 -13 37 -19 155 -25 61 -3 129
-8 153 -11 l42 -5 -20 -26 c-29 -37 -11 -67 36 -61 19 2 34 0 34 -6 0 -5 -17
-64 -39 -130 -42 -132 -55 -186 -43 -186 4 0 41 38 82 84 41 46 80 84 85 83
23 -3 74 35 87 63 7 16 19 30 26 30 17 0 123 78 142 104 27 40 94 101 109 101
10 0 21 17 29 45 55 186 67 215 89 218 12 2 39 21 60 43 21 22 85 74 143 116
58 43 124 92 147 111 l43 34 9 -26 c15 -37 39 -126 45 -166 7 -42 -10 -80 -44
-97 -18 -9 -20 -13 -8 -13 9 0 29 11 45 24 31 27 33 56 7 165 -9 39 -11 68 -5
74 11 11 14 5 34 -58 41 -130 49 -383 17 -567 -31 -182 -85 -314 -192 -475
-60 -91 -193 -232 -258 -275 -42 -27 -43 -27 -10 -2 71 56 187 181 245 264 75
108 139 253 174 400 35 141 45 258 35 398 -6 90 -9 103 -18 81 -22 -51 -53
-80 -93 -85 l-38 -4 40 13 c32 11 36 15 20 19 -16 5 -15 6 7 7 15 0 29 5 33
10 3 6 -8 8 -28 4 -23 -3 -47 2 -75 16 l-42 21 12 -25 c6 -14 15 -25 20 -25 5
0 7 4 4 9 -4 5 3 7 14 4 11 -3 22 -9 25 -13 3 -5 -4 -6 -15 -3 -14 4 -20 0
-20 -12 0 -13 -6 -16 -26 -11 -17 5 -23 3 -19 -4 3 -5 13 -10 21 -10 8 0 14
-5 14 -11 0 -7 -12 -10 -30 -7 -16 3 -30 1 -30 -4 0 -4 11 -8 25 -8 26 0 34
-14 13 -24 -7 -3 -1 -4 15 -1 15 3 27 1 27 -5 0 -5 -20 -10 -44 -10 -25 0 -48
-5 -52 -12 -7 -11 68 -7 111 7 l20 7 -20 -13 c-11 -7 -23 -17 -26 -22 -4 -5
-33 -12 -65 -16 l-59 -7 44 -14 44 -14 -29 -14 c-28 -13 -28 -13 -2 -7 14 2
34 7 45 10 10 3 0 -4 -22 -15 -42 -20 -27 -27 22 -10 27 10 27 9 8 -6 -19 -16
-19 -16 10 -9 29 6 29 6 11 -14 -11 -12 -38 -26 -60 -33 -55 -15 -67 -28 -27
-28 43 0 37 -24 -7 -28 -37 -4 -41 -16 -11 -32 30 -17 54 -8 147 53 45 30 82
50 82 43 0 -26 -23 -92 -38 -108 -8 -10 -12 -18 -8 -18 5 0 -12 -16 -36 -36
-56 -47 -55 -46 -33 -38 34 12 4 -14 -66 -57 -66 -40 -89 -44 -48 -8 13 11 18
18 12 14 -7 -3 -13 -2 -13 4 0 12 63 73 107 104 41 28 53 52 21 43 -13 -3 -40
-9 -60 -12 -35 -6 -54 -24 -26 -24 6 0 3 -9 -7 -20 -14 -15 -15 -20 -4 -20 8
0 0 -8 -16 -19 -19 -11 -43 -43 -65 -85 -18 -37 -41 -73 -50 -79 -21 -15 -80
-102 -80 -117 0 -7 -13 -28 -30 -47 -16 -18 -30 -39 -30 -46 0 -18 -47 -61
-89 -82 -18 -9 -36 -26 -38 -36 -4 -12 -17 -22 -34 -26 -61 -12 -24 -23 77
-22 58 0 109 -2 112 -5 3 -3 -51 -6 -119 -6 -111 0 -128 -2 -147 -20 -12 -11
-28 -20 -36 -20 -33 0 -133 -45 -158 -72 -40 -41 -39 -103 1 -142 47 -45 179
-73 221 -46 9 6 17 5 22 -3 10 -16 129 9 145 31 7 9 19 26 28 37 15 19 15 19
9 -10 -9 -39 8 -24 47 42 16 26 29 41 29 33 0 -8 -9 -30 -21 -49 -23 -38 -21
-44 12 -36 43 11 60 33 100 127 24 55 38 79 34 59 -3 -19 -16 -59 -30 -88 -13
-29 -20 -53 -16 -53 10 0 37 30 44 50 3 9 6 10 6 2 1 -8 15 -3 41 14 22 15 40
27 40 28 0 2 5 27 10 58 7 37 7 63 0 79 -9 21 -9 19 -4 -11 4 -25 2 -31 -5
-20 -11 17 -9 21 -39 -70 -18 -53 -33 -67 -40 -38 -2 9 0 8 8 -2 9 -12 10 -6
6 25 -3 25 -2 33 3 20 7 -16 9 -14 14 14 4 19 7 48 7 65 0 17 9 49 19 71 l19
40 3 -35 c1 -29 3 -30 6 -10 3 14 9 27 14 30 5 3 11 23 14 44 6 49 12 56 21
21 7 -28 -7 -127 -31 -222 -7 -29 -10 -53 -6 -53 13 0 41 35 41 51 0 8 5 21
11 29 9 12 10 10 6 -8 -5 -23 -5 -23 25 -5 17 10 44 38 62 62 28 38 31 50 29
105 -1 34 -7 73 -13 86 -8 20 -9 12 -5 -38 5 -49 3 -62 -6 -56 -9 5 -11 1 -6
-15 7 -27 -11 -93 -24 -86 -5 4 -9 0 -9 -7 0 -11 -2 -10 -9 0 -6 10 -10 8 -14
-9 -11 -40 -12 -17 -7 116 4 97 7 120 12 90 4 -22 9 -60 9 -85 l2 -45 7 50 c6
45 7 46 10 15 2 -30 3 -28 11 20 5 30 11 68 14 83 2 15 1 26 -3 23 -4 -2 -6
11 -4 30 2 18 8 31 13 28 5 -3 9 9 9 27 0 41 8 34 14 -11 2 -19 9 -60 16 -90
6 -30 11 -81 11 -113 0 -32 4 -55 8 -52 19 11 19 70 1 148 -23 94 -25 121 -10
97 7 -12 10 -8 10 15 0 24 2 27 11 15 9 -12 9 -11 4 5 -4 11 -12 40 -18 65 -8
37 -11 41 -17 25 -6 -14 -8 -7 -7 23 1 23 4 42 7 42 23 0 71 -193 69 -273 -1
-40 -2 -40 -9 -12 -7 26 -8 23 -8 -20 l-1 -50 19 23 c11 13 24 43 30 65 6 23
18 61 26 85 17 45 12 146 -7 157 -5 3 -7 -6 -4 -22 3 -15 -1 -62 -8 -103 -13
-73 -14 -74 -20 -35 -4 22 -5 49 -3 60 2 11 1 14 -1 6 -3 -7 -20 20 -39 60
-34 74 -47 129 -18 76 22 -40 27 -28 9 18 -22 50 -11 56 14 8 26 -49 27 -29 1
25 -24 50 -25 59 -4 41 26 -21 104 -162 104 -186 0 -13 5 -23 10 -23 6 0 10
27 9 63 0 34 -3 56 -6 50 -3 -8 -23 11 -47 45 -24 31 -53 66 -64 76 -12 11
-22 24 -22 29 0 6 9 2 20 -8 24 -21 27 -9 4 16 -14 15 -14 36 -6 166 5 87 5
155 0 166 -6 11 -5 17 3 17 8 0 8 4 -1 15 -7 8 -10 21 -7 29 7 18 -35 206 -57
258 -9 21 -16 41 -16 46 0 4 23 25 50 45 l51 38 51 -58 c28 -32 94 -101 147
-152 l96 -95 0 -140 c1 -163 15 -376 25 -376 10 0 20 143 20 282 0 117 9 168
31 168 23 0 79 -51 98 -88 16 -32 19 -73 25 -317 4 -154 12 -284 17 -289 5 -6
9 3 10 25 6 371 12 525 18 532 4 4 64 -28 133 -72 145 -93 403 -224 535 -272
126 -46 127 -47 119 -272 -3 -95 -8 -189 -12 -210 -7 -41 12 -100 30 -94 6 2
17 16 25 32 11 22 11 41 2 96 -16 99 -15 340 3 364 13 17 17 17 122 -12 l109
-30 7 -54 c4 -30 2 -109 -4 -177 -12 -133 -4 -177 30 -170 31 6 42 47 32 118
-12 84 -12 231 0 250 7 11 15 12 37 5 45 -16 90 -117 109 -245 17 -110 14
-403 -4 -555 -10 -82 0 -130 30 -146 18 -10 25 -8 41 12 18 22 19 33 11 134
-11 137 -12 540 -1 577 11 40 35 34 57 -14 15 -35 18 -57 13 -125 -5 -73 -4
-83 12 -89 28 -11 36 16 30 91 -7 84 7 115 43 96 41 -22 55 -128 43 -325 -10
-151 -6 -186 24 -186 7 0 15 6 18 13 2 6 2 93 -1 193 -5 185 4 254 33 254 34
0 40 -66 40 -450 0 -305 -4 -397 -18 -491 -19 -127 -13 -203 19 -226 25 -18
41 -16 65 8 20 20 21 29 16 123 -4 55 -11 135 -16 176 -19 144 -6 693 20 802
14 59 33 78 57 54 19 -19 22 -101 8 -261 -8 -91 -7 -102 10 -123 24 -29 51
-21 61 17 3 14 1 73 -5 131 -26 228 -4 340 64 340 32 0 46 -32 43 -99 -3 -87
-2 -93 24 -89 21 3 22 6 19 86 -2 46 2 98 8 116 12 36 35 46 112 46 43 0 87
19 133 58 l30 25 3 -69 c2 -38 6 -156 10 -263 6 -153 10 -195 21 -199 11 -4
13 8 8 64 -8 97 12 524 26 552 10 20 46 35 195 84 137 45 187 57 195 49 18
-18 26 -135 27 -391 1 -129 5 -253 9 -275 11 -51 11 -50 16 255 8 419 13 447
93 493 57 33 62 23 62 -120 1 -148 15 -392 24 -400 3 -4 8 -4 11 -2 2 3 7 126
10 274 4 149 11 281 16 295 13 33 232 164 260 155 31 -10 22 -25 -16 -25 -19
0 -35 -4 -35 -10 0 -6 27 -9 65 -7 44 1 65 6 65 15 0 8 -9 11 -27 7 l-28 -6
25 15 c14 8 28 15 31 16 12 0 -3 -285 -17 -319 -18 -43 -18 -50 1 -25 9 12 14
14 15 5 0 -7 -22 -35 -49 -62 -59 -59 -101 -130 -94 -159 4 -17 10 -11 29 31
28 60 40 62 19 4 -8 -22 -14 -54 -15 -72 0 -63 46 -223 69 -237 10 -7 21 17
20 42 0 14 -2 13 -9 -3 -8 -18 -9 -17 -9 8 -1 16 -5 26 -11 22 -5 -3 -10 -3
-10 2 0 20 38 202 44 212 4 6 5 11 1 11 -3 0 -18 -28 -33 -63 l-27 -62 -6 65
c-4 43 -1 76 7 98 7 18 9 30 4 27 -23 -14 -7 16 30 56 29 33 39 39 40 26 0
-11 -8 -31 -18 -45 -33 -48 -37 -58 -14 -38 28 24 28 13 1 -30 -11 -19 -18
-34 -15 -34 3 0 17 18 32 41 30 48 43 46 19 -3 l-16 -33 20 25 c25 30 27 13 6
-45 -19 -51 -18 -69 1 -30 12 25 13 25 8 5 -4 -14 -7 -39 -7 -57 0 -18 -4 -30
-8 -27 -11 6 -23 -42 -14 -56 3 -5 1 -43 -6 -83 -9 -55 -9 -78 -1 -93 10 -16
11 -10 12 36 0 30 12 98 25 150 13 52 22 77 19 55 -3 -22 -7 -49 -8 -60 -1
-11 2 -5 7 13 14 42 22 41 22 -3 0 -19 -3 -35 -6 -35 -8 0 -18 -53 -25 -140
-5 -56 -3 -71 16 -103 27 -45 39 -43 15 2 -10 20 -14 45 -11 69 5 30 4 32 -3
12 l-9 -25 -1 24 c-1 13 5 53 11 90 10 54 14 61 18 37 3 -17 10 -28 15 -25 6
2 13 -16 16 -41 l6 -45 1 53 c1 28 5 52 10 52 10 0 2 -208 -9 -235 -6 -16 -8
-11 -10 20 l-1 40 -8 -40 c-8 -37 -6 -42 23 -65 18 -14 50 -41 72 -61 40 -36
105 -74 105 -61 0 4 -7 32 -15 62 -22 82 -10 73 15 -12 12 -40 31 -83 43 -95
20 -23 117 -76 124 -69 2 2 -5 19 -16 37 -12 19 -21 41 -21 49 0 8 15 -9 32
-38 36 -57 52 -67 42 -24 -5 23 -2 22 18 -12 18 -30 33 -42 68 -52 25 -8 56
-14 69 -14 24 0 24 0 5 23 -19 22 -19 22 1 6 40 -32 90 -42 151 -28 76 17 131
58 140 103 12 68 -39 119 -161 157 -22 7 -49 20 -60 30 -16 14 -47 19 -145 24
-69 4 -127 10 -130 13 -3 2 49 2 115 -1 93 -4 116 -2 101 6 -10 7 -32 26 -48
44 -16 17 -42 36 -58 43 -17 7 -41 34 -65 75 -20 35 -43 66 -52 69 -8 3 -11
11 -7 17 3 6 -3 23 -13 38 -11 14 -23 36 -27 48 -4 13 -18 31 -31 41 -13 11
-34 46 -46 78 -12 33 -37 74 -55 92 -17 17 -27 32 -22 32 6 0 5 6 -2 15 -10
12 -10 15 1 16 8 0 -13 9 -45 20 -33 10 -61 18 -62 16 -2 -1 27 -33 63 -70 49
-50 61 -67 47 -67 -15 0 -14 -4 9 -18 30 -19 36 -34 10 -26 -12 4 -9 -1 7 -15
14 -11 20 -21 15 -21 -14 0 -73 41 -114 79 -34 32 -31 43 5 16 10 -8 24 -14
29 -15 6 0 -6 13 -25 28 -44 34 -100 94 -100 106 0 6 15 -4 33 -22 18 -18 36
-32 41 -32 4 0 -13 17 -37 38 -47 39 -68 94 -50 127 8 13 12 12 33 -10 13 -14
28 -25 34 -25 6 0 -8 19 -31 43 -47 47 -53 78 -39 183 l8 61 26 -24 c14 -13
27 -21 30 -18 3 3 -3 12 -14 20 -25 19 -12 19 34 -1 36 -16 36 -17 12 -23
l-24 -7 24 -17 c23 -16 23 -17 4 -17 -12 0 -33 9 -48 21 -36 28 -33 7 6 -36
43 -50 97 -75 155 -74 l48 1 -46 8 c-26 4 -59 15 -75 24 -29 16 -29 16 25 9
39 -4 52 -3 47 6 -4 6 -19 11 -34 12 -15 0 -36 4 -47 9 -18 8 -18 9 5 9 20 1
22 3 10 11 -11 8 -8 9 13 4 34 -8 37 11 2 20 -27 7 -35 26 -11 26 8 0 18 4 21
10 4 6 -7 8 -27 4 l-33 -6 33 27 c36 30 44 55 10 31 -29 -21 -72 -20 -93 1
-47 47 -37 113 26 169 113 100 215 201 319 312 109 117 123 131 117 114 -2 -7
8 -13 18 -11 3 1 10 3 15 4 6 1 11 3 13 4 9 8 47 9 47 2 0 -5 9 -7 20 -4 12 3
20 0 20 -6 0 -7 4 -10 10 -6 10 6 30 -7 212 -147 69 -54 128 -105 132 -113 3
-9 21 -22 40 -30 44 -19 47 -25 81 -162 22 -90 32 -113 45 -113 10 0 20 -9 23
-20 3 -11 12 -20 20 -20 13 0 44 -37 57 -67 8 -19 122 -113 137 -113 7 0 13
-6 13 -14 0 -15 67 -76 84 -76 11 0 40 -33 109 -123 50 -66 52 -68 55 -40 2
16 -9 82 -23 148 -14 66 -28 133 -32 149 -6 26 -4 27 15 17 31 -16 50 -13 62
10 9 16 8 26 -4 44 l-15 23 127 6 c145 8 202 15 202 25 0 4 -46 28 -102 53
-57 26 -103 51 -103 57 0 13 -43 45 -82 60 -18 8 -33 17 -33 21 0 11 -85 73
-139 101 -25 13 -59 22 -75 21 -23 -2 -27 0 -16 7 8 6 12 11 10 13 -3 2 -19
13 -37 26 -29 20 -44 22 -154 22 l-121 0 -32 33 c-17 18 -44 38 -60 45 -32 14
-226 170 -226 182 0 13 29 20 61 13 22 -4 29 -2 27 8 -2 7 2 13 7 14 6 0 16 4
23 8 6 5 12 4 12 -1 0 -5 14 -6 31 -4 20 3 45 -3 71 -18 45 -25 154 -36 177
-17 12 9 13 9 7 0 -4 -7 -2 -13 4 -13 6 0 15 11 20 25 5 14 12 25 14 25 3 0 3
-7 0 -15 -5 -11 -2 -13 10 -9 9 3 16 10 16 15 0 4 10 5 23 0 17 -6 26 -3 40
12 9 11 17 15 17 8 0 -7 5 -9 10 -6 6 4 7 11 4 17 -4 6 -2 8 4 5 16 -11 44 4
38 19 -5 12 12 19 37 15 4 0 7 4 7 9 0 6 -6 10 -12 10 -7 0 -5 5 5 11 9 5 17
15 17 22 0 6 13 23 29 37 16 14 43 42 60 64 51 64 39 136 -30 171 -38 20 -71
11 -138 -37 -49 -34 -60 -38 -118 -38 -58 0 -66 3 -101 35 l-37 34 28 1 c25 0
31 8 28 36 -1 7 6 14 14 18 9 3 14 2 11 -3 -3 -5 6 -11 20 -14 21 -4 25 -1 21
13 -2 9 1 17 9 17 7 0 11 -4 8 -8 -6 -10 32 -20 64 -17 16 2 21 7 17 18 -5 12
-4 13 6 3 15 -15 43 -18 35 -4 -4 5 4 7 16 3 17 -4 20 -2 15 12 -4 10 -3 15 3
11 6 -3 25 -1 44 6 26 9 32 17 30 35 -1 17 7 28 32 43 56 33 68 102 39 216
-32 119 -92 197 -197 252 -49 26 -62 28 -164 28 -124 0 -114 -9 -92 79 l10 39
226 -7 c125 -4 247 -9 272 -12 112 -9 150 -17 150 -28 0 -7 -11 -41 -25 -76
-14 -35 -23 -65 -21 -68 3 -2 31 7 63 20 32 12 177 61 321 108 144 47 262 88
262 92 0 3 -24 14 -52 24 -29 9 -132 46 -228 81 -333 123 -359 132 -364 124
-3 -4 8 -36 25 -71 16 -35 26 -67 22 -71 -16 -15 -154 -22 -430 -20 l-203 1 1
32 c1 18 6 62 13 98 l11 65 43 -1 c23 0 42 2 42 5 0 4 33 6 73 5 41 0 75 4 79
10 5 8 8 7 8 -1 0 -21 86 -13 119 11 23 17 45 22 108 24 115 3 343 25 343 32
0 4 -67 9 -150 12 l-149 5 -30 31 c-16 18 -34 32 -40 32 -6 0 -18 15 -27 33
-9 17 -23 36 -31 40 -7 5 -11 12 -8 18 3 5 0 6 -8 3 -8 -3 -18 -1 -21 4 -7 12
66 22 157 22 66 0 72 2 109 35 49 45 30 56 -39 24 -37 -17 -65 -22 -123 -21
-81 1 -135 15 -124 33 3 6 0 15 -7 20 -11 7 -10 9 5 9 20 0 20 0 0 14 -17 13
-19 32 -25 208 -7 223 -21 278 -92 356 -61 65 -124 94 -208 94 -37 0 -77 -3
-88 -7 -18 -5 -24 5 -54 102 l-35 108 37 33 c20 19 59 49 88 68 29 19 64 46
77 61 25 27 26 27 151 24 100 -2 125 0 125 11 0 7 10 18 23 23 12 6 21 16 20
23 -2 7 8 12 23 12 32 0 53 11 137 73 49 36 65 52 55 58 -9 6 -3 9 17 9 34 0
114 58 107 78 -2 6 2 12 8 12 17 0 220 93 220 101 0 12 -75 19 -219 19 l-144
0 22 24 c19 20 21 28 12 45 -13 23 -32 26 -62 11 -26 -14 -25 -8 11 157 17 75
30 149 28 163 -3 22 -10 15 -68 -60 -35 -47 -69 -89 -76 -95 -6 -6 -14 -52
-18 -105 -3 -52 -10 -108 -16 -125 -7 -25 -8 -21 -4 20 2 28 6 85 8 127 3 76
3 76 -18 62 -12 -7 -29 -26 -40 -42 -10 -15 -30 -34 -45 -40 -40 -18 -120 -90
-147 -133 -15 -24 -24 -55 -25 -81 -1 -39 -2 -40 -8 -13 -6 29 -29 34 -23 5 1
-8 5 -33 7 -55 4 -38 4 -38 -6 6 -9 38 -14 46 -29 42 -14 -4 -23 -24 -36 -82
-36 -165 -41 -177 -78 -195 -19 -9 -37 -25 -41 -35 -7 -22 -102 -99 -113 -92
-4 3 -23 44 -44 92 -42 102 -129 268 -205 391 -57 93 -61 103 -38 112 8 3 15
14 15 25 0 21 -66 180 -80 195 -10 10 -90 10 -121 0 -10 -3 -43 27 -98 92
l-83 96 19 27 c11 14 35 47 53 73 l33 46 -49 67 c-27 37 -48 69 -47 72 5 17
180 207 198 215 12 5 32 27 44 48 23 41 24 41 166 55 88 9 105 14 105 30 0 8
11 22 25 31 14 9 25 23 25 30 0 8 10 14 24 14 14 0 37 11 53 24 48 40 121 116
127 131 3 8 14 15 24 15 18 0 72 58 72 77 0 4 11 15 24 23 13 8 59 40 102 70
76 53 78 55 48 58 -32 3 -264 -23 -302 -34 -24 -7 -24 -7 -8 24 18 34 12 61
-13 63 -22 2 -23 2 -45 -7 -18 -7 -18 0 -11 171 6 129 5 176 -3 171 -7 -4 -28
-37 -48 -74 -21 -37 -46 -80 -57 -96 -16 -22 -20 -44 -20 -90 1 -67 -2 -65
-12 7 -5 41 -8 46 -24 37 -10 -5 -24 -23 -31 -40 -7 -16 -16 -30 -21 -30 -5 0
-9 -4 -9 -10 0 -5 -22 -30 -49 -55 -51 -48 -116 -158 -107 -182 3 -7 1 -13 -4
-13 -6 0 -10 6 -10 13 -1 6 -9 -4 -20 -23 -11 -19 -19 -31 -20 -25 0 5 -5 4
-11 -2 -7 -7 -15 -67 -19 -134 l-8 -122 -41 -37 c-23 -21 -41 -43 -41 -49 0
-7 -48 -65 -106 -129 -98 -109 -110 -119 -175 -144 l-70 -26 -79 59 c-44 33
-82 64 -85 69 -3 4 13 58 35 119 45 127 51 109 -67 198 l-72 55 -101 -68 c-55
-38 -106 -73 -113 -78 -8 -5 -37 6 -82 34 -39 23 -71 44 -73 45 -2 2 4 50 12
108 27 179 32 166 -81 219 -69 33 -103 43 -114 37 -13 -7 -26 3 -59 46 -127
164 -339 304 -538 356 -77 20 -278 38 -217 20z m300 -63 c179 -69 341 -186
441 -321 48 -65 48 -66 -9 -131 l-34 -39 -42 79 c-102 195 -265 348 -459 431
-54 23 -55 24 -17 18 22 -4 76 -20 120 -37z m2212 -117 c-3 -25 -8 -77 -12
-116 -3 -38 -8 -72 -11 -74 -2 -2 -4 30 -4 72 0 45 4 77 10 77 6 0 9 3 9 8 -4
22 4 123 8 103 3 -13 3 -44 0 -70z m-5584 -17 c4 -4 7 -48 7 -98 -1 -71 -3
-87 -12 -72 -6 12 -8 46 -5 90 3 39 2 60 -2 46 -7 -24 -7 -24 -14 9 -4 18 -7
52 -6 75 l1 41 11 -42 c7 -23 15 -45 20 -49z m5558 14 c-9 -31 -9 -31 -10 -6
-1 30 11 67 16 51 2 -6 0 -26 -6 -45z m-5533 -102 l-2 -101 -6 95 c-4 52 -10
106 -14 120 -7 24 -7 24 8 6 13 -16 16 -42 14 -120z m5504 87 c-3 -16 -7 -22
-10 -15 -4 13 4 42 11 42 2 0 2 -12 -1 -27z m8 -93 l-11 -25 6 25 c2 14 5 36
6 50 l2 25 4 -25 c2 -14 -1 -37 -7 -50z m-74 -40 c-2 -8 -5 -1 -7 15 -1 17 -5
-1 -9 -40 l-6 -70 -2 70 c-1 39 1 81 5 95 6 23 8 22 15 -15 5 -22 7 -46 4 -55z
m-5349 3 c-2 -16 -4 -3 -4 27 0 30 2 43 4 28 2 -16 2 -40 0 -55z m5400 15 c-2
-13 -4 -5 -4 17 -1 22 1 32 4 23 2 -10 2 -28 0 -40z m-2719 -61 c18 -56 32
-108 32 -115 0 -7 -11 -12 -23 -12 -13 0 -32 -9 -43 -21 -15 -16 -27 -20 -55
-16 -33 4 -38 2 -52 -28 -10 -21 -35 -43 -71 -64 -55 -31 -66 -44 -46 -56 6
-3 10 -14 10 -24 0 -22 -46 -74 -59 -67 -12 8 -173 -20 -281 -49 -186 -50
-530 -206 -530 -240 0 -28 21 -26 78 8 223 134 595 248 847 259 69 3 70 3 70
-22 0 -24 -2 -25 -118 -37 -197 -21 -354 -58 -519 -124 -137 -54 -295 -137
-319 -167 -34 -44 -25 -99 36 -221 49 -99 53 -112 43 -138 -6 -17 -8 -39 -3
-49 6 -15 8 -16 12 -4 3 8 7 22 10 30 3 10 15 -5 33 -40 16 -30 29 -58 30 -62
0 -12 -29 -10 -67 4 -30 11 -35 10 -61 -15 -30 -28 -56 -35 -68 -16 -4 7 -22
9 -44 6 -38 -5 -38 -4 -106 85 -70 93 -103 118 -153 118 -46 0 -56 -7 -121
-86 -60 -72 -63 -74 -81 -58 -18 16 -18 18 11 57 52 71 31 95 -25 30 l-33 -38
-73 72 -72 72 59 71 c94 114 89 100 52 162 -18 30 -46 82 -62 116 -29 61 -29
62 -10 83 10 12 36 34 56 51 l37 29 43 -27 c24 -15 73 -47 110 -71 44 -29 72
-41 80 -36 38 23 178 126 183 133 3 5 -1 26 -10 47 -15 39 -58 214 -53 218 13
11 131 65 142 65 8 0 52 -42 97 -92 46 -51 85 -94 88 -95 4 -1 53 17 111 41
l105 42 5 139 5 139 40 12 c22 6 57 14 77 18 35 6 39 5 63 -34 14 -22 45 -75
68 -118 41 -75 44 -77 76 -74 37 4 51 -9 51 -48 0 -54 -41 -66 -69 -19 -12 19
-21 27 -26 19 -7 -12 18 -46 47 -61 13 -7 25 -5 44 7 22 15 25 23 22 62 -3 42
-1 46 22 53 14 4 42 7 62 8 20 1 40 6 43 11 4 6 15 50 25 98 38 187 32 179
136 181 l61 1 31 -103z m-2741 16 c-2 -16 -4 -5 -4 22 0 28 2 40 4 28 2 -13 2
-35 0 -50z m90 -120 c-2 -32 -3 -6 -3 57 0 63 1 89 3 58 2 -32 2 -84 0 -115z
m5273 111 c0 -27 -4 -43 -10 -39 -17 11 -11 85 7 85 2 0 3 -21 3 -46z m67 -6
c-2 -13 -4 -5 -4 17 -1 22 1 32 4 23 2 -10 2 -28 0 -40z m-5309 -122 c-4 -6
-7 28 -6 75 l1 84 7 -75 c3 -41 3 -79 -2 -84z m5203 62 c-3 -114 -11 -112 -11
2 0 51 3 90 6 87 4 -4 6 -44 5 -89z m-5173 -48 l-1 -85 -7 60 c-11 86 -11 155
0 130 5 -11 8 -58 8 -105z m5259 73 c-3 -10 -5 -2 -5 17 0 19 2 27 5 18 2 -10
2 -26 0 -35z m167 35 c-13 -24 -37 -48 -47 -48 -6 0 2 14 18 30 31 32 41 38
29 18z m-5673 -30 c13 -17 16 -28 8 -23 -7 5 -20 17 -27 27 -7 10 -18 16 -23
13 -5 -4 -9 -1 -9 4 0 22 29 10 51 -21z m5398 -70 c-1 -87 -3 -95 -9 -53 -4
28 -6 60 -3 71 3 12 0 25 -6 28 -8 5 -11 -22 -11 -85 0 -112 -7 -115 -10 -4
-3 105 -2 117 9 111 5 -3 11 3 14 14 11 44 17 15 16 -82z m-5110 27 c0 -26 -2
-27 -9 -10 -7 16 -9 14 -9 -15 -1 -26 2 -31 9 -20 7 11 9 4 9 -25 -1 -34 -2
-36 -9 -15 -6 23 -8 21 -12 -15 -3 -22 -5 7 -6 64 -2 94 -1 103 13 85 8 -10
14 -32 14 -49z m2768 4 c-3 -23 -16 -63 -30 -89 -17 -32 -22 -52 -15 -63 16
-30 -121 -415 -143 -401 -5 3 -9 20 -9 37 0 18 -4 38 -9 46 -13 21 -35 -83
-27 -131 6 -34 2 -48 -19 -79 -31 -48 -39 -49 -32 -5 3 18 2 38 -3 42 -5 5
-12 41 -17 79 l-8 70 -18 -80 c-9 -44 -17 -112 -16 -151 0 -73 -14 -104 -47
-104 -18 0 -18 -19 0 -26 30 -12 56 -99 56 -186 l-1 -83 -47 -30 c-60 -38
-158 -47 -229 -20 -130 50 -206 200 -168 331 32 110 120 170 234 162 48 -3 70
-11 108 -38 32 -22 42 -26 29 -12 -11 12 -43 34 -73 48 -47 23 -62 26 -127 22
-61 -4 -80 -10 -119 -37 -84 -57 -138 -151 -140 -242 -1 -31 -5 -56 -8 -53
-24 14 -52 270 -41 369 l7 60 70 23 c103 35 284 70 420 83 66 7 122 15 125 19
3 5 3 35 2 69 l-4 61 -60 0 c-53 0 -59 2 -53 18 4 9 8 31 9 47 1 23 6 31 24
33 12 2 32 17 44 33 17 23 30 29 58 29 19 0 47 8 60 18 14 9 38 22 55 27 36
12 44 48 20 95 -17 32 -16 33 30 43 11 3 42 5 69 6 l49 1 -6 -41z m2470 19
c-3 -8 -6 -5 -6 6 -1 11 2 17 5 13 3 -3 4 -12 1 -19z m-2219 -19 c72 -22 199
-87 273 -141 68 -49 131 -107 124 -117 -2 -5 2 -14 10 -21 29 -24 70 -124 65
-157 l-5 -32 -53 19 c-64 23 -78 19 -85 -23 -3 -18 -9 -46 -12 -63 -6 -28 -4
-33 16 -39 13 -4 77 -32 142 -63 113 -53 117 -56 117 -87 0 -31 -29 -217 -35
-223 -15 -16 -95 67 -95 97 0 5 -12 17 -27 26 -16 10 -38 28 -50 39 -36 35
-83 68 -83 59 0 -5 13 -22 30 -38 16 -16 28 -31 25 -33 -3 -3 13 -16 35 -29
38 -23 52 -54 31 -67 -10 -7 -43 -97 -37 -103 2 -3 12 18 21 46 9 28 20 51 23
51 4 0 20 -16 36 -36 41 -52 39 -105 -8 -153 -47 -48 -72 -107 -54 -128 11
-13 6 -22 -32 -55 -70 -62 -161 -128 -176 -128 -11 0 -14 37 -15 203 -1 111 0
213 1 227 2 29 48 120 61 120 5 0 9 7 9 15 0 8 -9 15 -19 15 -24 0 -31 22 -36
108 -3 37 -9 87 -14 112 -6 25 -10 63 -11 84 0 22 -2 37 -4 35 -7 -7 -37 -190
-32 -197 2 -4 0 -16 -3 -26 -7 -17 -10 -16 -32 15 -18 26 -24 48 -25 94 -1 33
-6 73 -13 88 -6 16 -11 43 -11 60 0 24 -3 28 -10 17 -5 -8 -10 -25 -10 -37 0
-12 -5 -34 -11 -50 l-11 -28 -13 25 c-29 56 -116 340 -110 360 4 12 -3 40 -18
73 -14 28 -28 67 -32 86 l-7 34 51 -7 c28 -4 82 -16 119 -27z m2622 16 c-19
-7 -48 -11 -65 -9 -25 4 -27 3 -10 -5 25 -12 26 -12 -65 -17 -58 -4 -71 -2
-57 6 21 14 147 38 197 38 l35 0 -35 -13z m-6096 -15 c77 -12 97 -20 47 -20
-22 0 -30 -4 -25 -12 5 -8 2 -9 -11 -4 -11 4 -42 14 -69 22 -120 37 -112 39
58 14z m5622 -17 c-11 -11 -19 6 -11 24 8 17 8 17 12 0 3 -10 2 -21 -1 -24z
m-5133 -113 c3 -63 4 -106 1 -95 -3 11 -10 24 -15 30 -5 5 -9 52 -9 104 0 132
17 104 23 -39z m5287 97 c0 -5 -4 -6 -8 -3 -9 5 -114 -99 -301 -302 -63 -67
-116 -120 -119 -117 -6 6 34 51 215 241 84 89 163 173 174 188 17 21 24 25 30
14 5 -7 9 -17 9 -21z m-5852 2 c-8 -6 1 -9 27 -10 57 -1 94 -18 40 -18 -50 0
-78 11 -81 32 -1 10 3 14 13 10 12 -5 12 -7 1 -14z m706 -410 c-2 -4 -79 69
-171 162 -91 92 -171 165 -176 162 -6 -3 -7 -2 -4 4 4 5 -7 23 -24 39 -17 16
-35 38 -41 49 -6 11 87 -76 205 -194 119 -118 214 -218 211 -222z m4873 314
c-6 -133 -27 -165 -27 -42 0 102 9 161 23 152 6 -4 8 -45 4 -110z m565 105
c-7 -7 -42 -13 -80 -14 l-67 -3 64 9 c35 5 66 12 69 15 3 3 10 5 16 5 6 0 5
-5 -2 -12z m-5959 -15 c-13 -2 -35 -2 -50 0 -16 2 -5 4 22 4 28 0 40 -2 28 -4z
m4074 -22 l68 -30 0 -43 c-1 -44 -8 -98 -25 -190 -6 -28 -9 -52 -8 -54 2 -1
49 -30 106 -64 l102 -62 48 40 c26 21 75 58 109 82 l61 43 32 -24 c17 -13 45
-36 62 -50 l32 -26 -34 -82 c-19 -44 -37 -81 -40 -81 -4 0 -17 11 -29 24 -14
15 -30 22 -42 19 -24 -7 -25 -23 -1 -23 28 0 65 -39 58 -61 -3 -11 -9 -28 -12
-39 -5 -15 12 -38 75 -100 45 -45 81 -82 81 -83 0 -1 -4 -17 -10 -36 -8 -28
-6 -36 7 -47 16 -11 13 -17 -26 -60 -24 -27 -48 -53 -53 -58 -5 -6 -40 22 -86
70 -76 76 -106 104 -115 104 -3 0 -7 -9 -10 -19 -3 -13 3 -23 20 -32 21 -11
60 -53 140 -150 11 -14 11 -20 -4 -38 l-18 -22 -57 68 c-169 203 -455 411
-715 521 -44 19 -53 27 -53 47 0 38 24 32 172 -43 151 -77 298 -172 413 -267
43 -36 81 -65 86 -65 73 0 -148 183 -378 312 -109 62 -133 85 -133 128 0 43
48 12 70 -44 8 -22 14 -26 22 -18 9 9 8 17 0 34 -26 48 -71 104 -99 119 -19
11 -30 26 -34 50 -3 19 -12 44 -19 56 -21 32 -3 46 38 31 28 -11 35 -10 59 8
31 23 42 67 23 90 -12 14 -10 19 35 80 12 17 1 19 82 -15z m1710 23 c-3 -3
-12 -4 -19 -1 -8 3 -5 6 6 6 11 1 17 -2 13 -5z m126 -21 c-7 -2 -21 -2 -30 0
-10 3 -4 5 12 5 17 0 24 -2 18 -5z m-6000 -30 c-7 -2 -19 -2 -25 0 -7 3 -2 5
12 5 14 0 19 -2 13 -5z m60 0 c-7 -2 -21 -2 -30 0 -10 3 -4 5 12 5 17 0 24 -2
18 -5z m5792 -3 c-3 -5 -15 -10 -26 -10 -11 0 -17 5 -14 10 3 6 15 10 26 10
11 0 17 -4 14 -10z m110 0 c-28 -12 -63 -12 -70 0 -4 6 12 10 42 9 36 0 43 -3
28 -9z m-5866 -26 c2 -2 -23 -4 -57 -4 -38 0 -62 4 -62 11 0 10 108 3 119 -7z
m54 9 c-7 -2 -19 -2 -25 0 -7 3 -2 5 12 5 14 0 19 -2 13 -5z m5832 -3 c-3 -5
-39 -9 -78 -8 l-72 2 75 6 c41 4 76 7 78 8 2 1 0 -2 -3 -8z m-5463 -32 c-7 -7
-12 -8 -12 -2 0 14 12 26 19 19 2 -3 -1 -11 -7 -17z m-499 5 c-7 -2 -19 -2
-25 0 -7 3 -2 5 12 5 14 0 19 -2 13 -5z m4015 -17 c5 -22 -25 -56 -50 -56 -24
0 -23 15 3 51 22 32 42 34 47 5z m-3905 7 c-13 -2 -33 -2 -45 0 -13 2 -3 4 22
4 25 0 35 -2 23 -4z m5664 1 c-3 -3 -12 -4 -19 -1 -8 3 -5 6 6 6 11 1 17 -2
13 -5z m96 -1 c-7 -2 -21 -2 -30 0 -10 3 -4 5 12 5 17 0 24 -2 18 -5z m-5686
-9 c-3 -3 -12 -4 -19 -1 -8 3 -5 6 6 6 11 1 17 -2 13 -5z m323 -31 c0 -19 -3
-24 -10 -17 -6 6 -8 18 -4 27 9 24 14 21 14 -10z m17 -30 c-3 -10 -5 -2 -5 17
0 19 2 27 5 18 2 -10 2 -26 0 -35z m32 -58 c-1 -100 -15 -71 -18 35 -1 53 2
71 9 60 5 -8 9 -51 9 -95z m4820 72 c0 -21 -1 -21 -9 -2 -12 28 -12 37 0 30 6
-3 10 -16 9 -28z m18 11 c-3 -8 -6 -5 -6 6 -1 11 2 17 5 13 3 -3 4 -12 1 -19z
m-5212 2 c57 -7 56 -7 -37 -9 -55 0 -99 3 -103 9 -7 11 49 12 140 0z m5174
-95 c0 -27 -3 -56 -8 -64 -6 -9 -9 21 -9 80 1 97 15 83 17 -16z m496 95 c-11
-5 -56 -8 -100 -8 -57 0 -71 3 -50 8 43 11 175 11 150 0z m-5645 -30 c0 -6
-28 -9 -67 -9 -60 2 -64 3 -28 9 61 11 95 11 95 0z m5473 3 c-7 -2 -21 -2 -30
0 -10 3 -4 5 12 5 17 0 24 -2 18 -5z m50 0 c-7 -2 -19 -2 -25 0 -7 3 -2 5 12
5 14 0 19 -2 13 -5z m90 0 c-13 -2 -33 -2 -45 0 -13 2 -3 4 22 4 25 0 35 -2
23 -4z m-5311 -42 c2 -22 0 -37 -4 -35 -8 5 -11 74 -4 74 2 0 6 -18 8 -39z
m-232 -1 c28 -6 20 -8 -41 -9 -85 -1 -139 7 -139 20 0 10 121 2 180 -11z
m5117 -27 c-3 -10 -5 -2 -5 17 0 19 2 27 5 18 2 -10 2 -26 0 -35z m328 37 c-3
-5 1 -10 9 -10 9 0 16 5 16 10 0 6 14 10 31 10 27 0 30 -2 19 -15 -10 -12 -34
-15 -109 -13 -62 1 -77 3 -41 5 38 3 50 7 40 13 -11 7 -8 10 13 10 16 0 26 -4
22 -10z m-5458 -41 c35 -6 63 -15 63 -19 0 -5 8 -11 18 -13 17 -4 -27 0 -131
12 -67 9 -102 31 -47 31 18 0 62 -5 97 -11z m5488 -5 c-14 -11 -32 -14 -60
-10 -28 5 -36 3 -25 -4 11 -7 -9 -9 -65 -8 l-80 1 65 7 c36 4 58 8 50 9 -27 5
33 19 85 20 47 0 49 -1 30 -15z m-5434 -75 c-12 -12 -25 -18 -29 -14 -4 4 2
13 12 21 30 22 43 17 17 -7z m5204 0 c-7 -11 -35 -12 -35 -1 0 4 9 8 20 9 11
1 18 -2 15 -8z m90 -10 c7 -7 2 -7 -17 0 -15 6 -35 8 -43 5 -8 -4 -15 -1 -15
6 0 15 58 6 75 -11z m-5170 -29 c23 -6 15 -8 -35 -8 -36 0 -74 3 -85 8 -26 11
77 11 120 0z m5152 -4 c3 -3 -27 -6 -68 -6 -41 0 -69 4 -62 8 14 9 121 8 130
-2z m-4952 -46 c4 -6 1 -18 -6 -26 -11 -14 -13 -14 -21 0 -15 26 12 51 27 26z
m4655 -15 c10 -12 9 -16 -5 -21 -19 -8 -40 9 -31 25 10 15 21 14 36 -4z
m-3564 -1125 c83 -85 170 -177 194 -205 53 -61 -734 729 -1027 1031 -117 121
-220 231 -229 244 -15 22 657 -655 1062 -1070z m3507 1058 c-4 -7 -19 -26 -34
-43 -15 -16 -37 -41 -49 -55 -27 -31 -158 -177 -185 -205 -11 -12 -64 -70
-119 -131 -54 -60 -138 -152 -186 -204 -48 -52 -159 -176 -246 -276 -191 -216
-481 -527 -497 -533 -7 -2 40 52 103 120 109 117 253 277 486 540 56 63 164
183 240 268 77 84 168 186 204 226 178 200 276 305 283 305 5 0 5 -6 0 -12z
m-2986 -186 c1 -126 5 -170 22 -226 11 -38 25 -72 30 -76 6 -3 17 -21 25 -41
30 -73 101 -153 187 -212 46 -32 107 -73 134 -92 28 -19 71 -45 96 -57 53 -26
87 -69 100 -125 10 -43 12 -246 3 -256 -9 -8 -159 48 -224 85 -238 133 -414
355 -482 610 -18 70 -22 110 -22 253 -1 229 2 240 67 270 29 13 54 24 57 24 3
1 6 -70 7 -157z m196 -4 c-49 -51 -76 -131 -69 -201 16 -161 134 -272 286
-271 36 1 76 7 89 13 12 7 25 10 28 7 3 -3 -19 -17 -51 -32 -119 -54 -266 -24
-338 71 -99 129 -84 304 34 411 48 43 62 44 21 2z m1627 7 c10 -12 8 -21 -10
-50 -12 -19 -24 -35 -26 -35 -2 0 -4 23 -4 50 0 52 15 65 40 35z m119 -79 l73
-50 -7 -60 c-10 -92 -43 -213 -81 -295 l-34 -74 -49 64 c-35 45 -47 67 -40 76
7 8 5 10 -8 7 -11 -3 -29 6 -46 24 l-28 29 16 47 c9 25 14 50 11 54 -6 9 23
133 34 145 4 4 10 -22 13 -58 5 -51 12 -74 32 -96 29 -35 35 -24 6 12 -11 15
-21 50 -25 91 -5 57 -3 74 14 108 13 26 25 38 33 34 7 -4 45 -30 86 -58z
m-2213 20 c8 -8 14 -17 14 -20 0 -11 -29 6 -34 20 -7 18 1 18 20 0z m-36 -16
c0 -5 -4 -10 -9 -10 -6 0 -13 5 -16 10 -3 6 1 10 9 10 9 0 16 -4 16 -10z
m2980 -15 c0 -12 -64 -75 -76 -75 -8 0 -14 -8 -14 -19 0 -27 -28 -48 -36 -28
-16 43 16 76 124 126 1 0 2 -1 2 -4z m198 -40 c17 -24 32 -47 32 -50 0 -7
-143 -177 -163 -194 -13 -10 -18 -9 -27 9 -8 16 -15 19 -22 12 -8 -8 -19 -5
-40 9 -28 20 -28 20 -28 1 0 -19 25 -37 44 -33 4 1 14 -4 22 -10 12 -9 12 -15
2 -27 -9 -11 -9 -14 -1 -9 22 13 24 -12 2 -32 -23 -22 -44 -18 -59 10 -11 20
2 35 21 23 7 -4 10 -2 8 5 -3 7 -8 12 -12 12 -4 -1 -16 -1 -27 -1 -13 0 -20
-7 -20 -18 0 -11 9 -27 20 -37 23 -20 26 -45 8 -63 -28 -28 11 -9 47 22 21 19
44 32 52 29 9 -4 13 4 13 28 0 26 -3 30 -10 19 -8 -13 -10 -12 -10 3 0 37 26
9 80 -86 52 -92 56 -97 83 -91 16 3 27 1 27 -5 0 -6 5 -11 11 -11 6 0 9 6 6
14 -6 16 43 31 140 42 l63 7 30 -68 c16 -37 30 -70 30 -74 0 -12 -129 -105
-151 -108 -11 -2 -18 1 -15 6 3 5 -1 11 -9 15 -8 3 -12 12 -9 20 3 8 1 17 -5
20 -7 5 -7 15 0 33 13 35 7 38 -33 17 l-33 -17 19 22 c11 11 16 24 11 29 -4 4
-10 1 -12 -5 -3 -7 -12 -13 -20 -13 -9 0 -13 6 -10 14 3 8 0 19 -7 25 -14 12
-22 -2 -44 -68 -10 -28 -9 -39 3 -58 13 -20 13 -22 0 -17 -8 4 -15 1 -15 -5 0
-6 5 -11 11 -11 5 0 7 -5 4 -10 -5 -8 -11 -7 -20 0 -16 13 -39 4 -29 -12 4 -6
1 -14 -6 -18 -13 -8 42 -29 80 -31 10 0 11 -2 3 -6 -7 -2 -13 -11 -13 -19 0
-9 5 -12 10 -9 15 9 12 -5 -5 -22 -15 -14 -29 -14 -68 2 -13 6 -16 3 -11 -9 3
-9 1 -23 -6 -31 -12 -14 -7 -20 14 -16 5 1 6 -8 3 -20 -4 -15 -3 -19 5 -11 6
6 16 8 23 5 7 -2 16 5 20 16 3 12 13 21 21 21 8 0 14 5 14 10 0 6 7 10 16 10
14 0 14 3 4 15 -10 12 -9 15 4 15 12 0 15 6 10 24 -5 23 11 45 24 31 3 -3 1
-10 -7 -14 -10 -7 -9 -9 3 -14 10 -4 13 -13 9 -23 -3 -9 -1 -19 5 -23 10 -6
52 -124 52 -147 0 -7 14 -19 30 -28 17 -8 30 -11 30 -6 0 11 122 1 133 -11 4
-5 4 -7 1 -4 -4 3 -13 0 -20 -5 -6 -6 -16 -10 -20 -9 -5 1 -20 1 -34 0 -29 -1
-53 -43 -44 -78 4 -14 2 -23 -5 -23 -6 0 -11 6 -11 13 0 9 -3 8 -9 -2 -6 -9
-11 -10 -15 -3 -4 6 -13 9 -21 5 -10 -3 -15 1 -16 13 0 11 -3 14 -6 7 -2 -7
-9 -13 -14 -13 -5 0 -18 -9 -29 -20 -22 -22 -40 -26 -40 -9 0 5 5 7 10 4 6 -3
10 1 10 9 0 19 -11 21 -28 4 -6 -6 -15 -8 -19 -3 -5 4 -2 10 5 12 6 3 12 14
12 24 0 13 -4 17 -11 13 -7 -4 -10 -1 -7 7 3 8 12 14 20 13 8 -1 15 4 15 11 0
7 -13 12 -29 13 -24 1 -27 -2 -17 -14 13 -16 -2 -19 -18 -3 -8 8 -13 8 -18 -1
-4 -7 1 -14 14 -17 26 -7 27 -15 1 -31 -11 -7 -20 -17 -20 -24 0 -7 7 -3 15 8
11 15 14 16 15 4 0 -19 -19 -40 -37 -40 -7 0 -13 11 -13 25 0 14 5 25 12 25 6
0 3 6 -7 14 -11 8 -16 19 -12 30 4 9 2 16 -2 16 -5 0 -14 24 -20 53 -37 174
-133 393 -166 381 -19 -8 -19 -7 6 -55 23 -45 23 -44 -8 -53 -16 -5 -23 -2
-28 13 -3 11 -19 34 -35 50 -40 44 -74 40 -204 -19 -61 -28 -116 -48 -123 -46
-7 3 -13 1 -13 -4 0 -5 -33 -26 -72 -45 -106 -53 -103 -46 -103 -188 l0 -122
-26 0 c-18 1 -25 -4 -22 -12 7 -17 2 -16 -33 2 -20 10 -23 15 -11 15 10 0 17
7 16 18 0 10 -3 12 -6 5 -7 -18 -23 -16 -23 2 0 8 6 15 13 15 9 0 9 2 0 8 -7
4 -13 26 -15 48 -3 43 -9 36 234 299 l37 40 1 -28 c0 -16 4 -26 10 -22 6 3 10
1 10 -6 0 -7 2 -10 5 -7 3 3 -1 21 -9 40 l-15 35 137 152 c75 84 138 148 140
142 7 -20 24 -11 19 9 -4 15 14 41 72 103 42 45 109 119 150 165 40 45 76 82
80 82 3 -1 21 -21 39 -45z m-5491 -117 c32 -96 36 -143 7 -63 -37 100 -44 125
-35 125 5 0 17 -28 28 -62z m1308 22 c66 -21 76 -28 183 -136 l113 -115 -25
-29 c-13 -17 -44 -64 -67 -105 -29 -50 -46 -72 -53 -65 -14 14 -39 12 -72 -5
-24 -12 -26 -15 -9 -16 11 -1 23 -1 27 0 4 0 5 -6 2 -14 -4 -8 -1 -15 5 -15 7
0 14 7 17 15 4 8 12 15 20 15 11 0 10 -8 -6 -40 -11 -22 -25 -40 -31 -40 -6 0
-7 -4 -4 -10 9 -14 -8 -12 -24 3 -11 10 -13 10 -7 0 5 -9 0 -13 -14 -13 -17 0
-20 -5 -18 -35 2 -30 5 -34 22 -29 18 6 19 5 9 -8 -7 -8 -10 -18 -6 -21 3 -4
0 -14 -8 -23 -8 -10 -13 -20 -12 -23 1 -3 -5 -5 -14 -3 -8 2 -12 -1 -8 -7 3
-6 -1 -11 -9 -11 -9 0 -16 7 -16 15 0 9 -8 19 -17 22 -19 7 -33 22 -33 37 0 4
6 6 14 3 8 -3 17 1 20 10 5 11 2 13 -11 8 -10 -4 -26 -7 -35 -7 -10 0 -18 -3
-18 -9 0 -5 -7 -9 -15 -9 -8 0 -12 -6 -9 -14 3 -7 -2 -16 -12 -20 -14 -5 -15
-4 -5 8 10 11 8 17 -6 26 -13 8 -14 13 -5 16 6 3 12 10 12 15 0 17 -29 9 -54
-16 -14 -14 -28 -21 -31 -15 -9 15 -25 12 -25 -5 0 -7 -8 -18 -17 -24 -13 -7
-14 -13 -7 -23 6 -7 14 -21 17 -31 6 -16 4 -16 -23 3 -17 12 -28 26 -25 31 4
5 0 6 -8 3 -8 -3 -20 3 -28 12 -8 10 -9 15 -2 11 7 -5 9 0 6 13 -4 14 1 26 13
35 17 12 15 13 -19 12 -29 -1 -37 -5 -37 -19 0 -10 5 -18 10 -18 6 0 10 -5 10
-10 0 -6 -15 0 -34 12 l-34 22 25 65 c13 36 26 68 28 71 4 6 74 1 202 -15 l62
-7 50 101 c28 55 51 106 51 114 0 7 -25 37 -55 67 -54 53 -55 56 -54 106 2 54
-7 82 -22 67 -5 -5 -3 -25 3 -46 6 -20 8 -40 5 -43 -6 -7 -46 34 -47 47 0 16
76 139 85 135 6 -1 42 -13 80 -26z m-1287 -21 c-3 -8 -7 -3 -11 10 -4 17 -3
21 5 13 5 -5 8 -16 6 -23z m30 -30 c-3 -8 -7 -3 -11 10 -4 17 -3 21 5 13 5 -5
8 -16 6 -23z m3520 -1 c-2 -15 -10 -23 -23 -23 -25 0 -32 32 -8 38 32 8 34 7
31 -15z m77 10 c27 -12 29 -16 16 -37 -14 -21 -64 -1 -66 27 -2 25 12 28 50
10z m-3618 -20 c-3 -8 -6 -5 -6 6 -1 11 2 17 5 13 3 -3 4 -12 1 -19z m107
-107 c9 -52 14 -96 11 -99 -4 -5 -6 4 -30 122 -17 88 -18 108 -6 86 5 -8 16
-57 25 -109z m3369 57 c-18 -21 -22 -21 -43 -8 -12 7 -11 13 10 35 23 24 25
25 37 9 11 -15 10 -21 -4 -36z m-3341 -58 c-8 -23 -10 -21 -16 20 -4 25 -10
54 -12 65 -3 11 5 2 16 -20 15 -29 18 -46 12 -65z m3552 77 c8 -13 7 -20 -4
-27 -8 -5 -19 -10 -23 -10 -12 0 -20 28 -13 46 7 19 25 15 40 -9z m-3666 -42
c0 -16 -2 -15 -8 5 -11 34 -11 60 0 35 5 -11 8 -29 8 -40z m3522 24 c0 -18 -2
-19 -15 -9 -15 12 -12 30 6 30 5 0 9 -10 9 -21z m87 -6 c11 -14 8 -19 -17 -35
-17 -10 -32 -18 -34 -18 -2 0 -6 18 -8 41 -3 39 -3 40 22 34 14 -3 31 -13 37
-22z m-3577 -28 c5 -21 5 -34 0 -29 -10 11 -25 82 -15 72 4 -3 11 -23 15 -43z
m4240 35 c0 -5 -4 -10 -10 -10 -5 0 -10 5 -10 10 0 6 5 10 10 10 6 0 10 -4 10
-10z m-750 -66 c0 -37 17 -37 60 -3 22 18 43 29 47 25 4 -4 8 -25 8 -48 0 -52
-38 -88 -93 -88 -47 0 -74 19 -96 65 -18 38 -15 68 12 98 15 16 17 16 39 -5
13 -12 23 -32 23 -44z m-3326 -71 c6 -43 4 -40 -14 22 -11 39 -19 77 -19 85 1
27 28 -58 33 -107z m3223 106 c16 -16 4 -49 -18 -49 -19 0 -24 16 -13 44 7 19
16 20 31 5z m277 -11 c9 -34 8 -35 -18 -40 -20 -4 -25 0 -29 21 -8 41 36 59
47 19z m-3529 -78 c8 -40 13 -75 11 -77 -4 -5 -36 126 -36 148 0 28 10 -2 25
-71z m-165 59 c3 7 7 -2 7 -20 0 -31 0 -31 -13 -7 -7 12 -13 28 -13 33 0 6 3
4 6 -4 4 -9 7 -10 13 -2z m235 -29 c3 -9 17 -22 30 -28 14 -6 26 -17 26 -24 1
-7 2 -17 4 -23 1 -5 3 -21 4 -35 l3 -25 9 25 c8 23 8 22 5 -7 -1 -18 0 -33 4
-33 8 0 31 -112 25 -118 -3 -3 -8 9 -11 26 -4 18 -12 32 -18 32 -11 0 -23 32
-47 128 -15 63 -25 67 -22 10 2 -39 1 -37 -14 21 -12 45 -19 58 -23 45 -6 -16
-8 -15 -12 7 -4 22 -1 25 13 22 10 -3 21 -13 24 -23z m4034 21 c12 -8 12 -14
2 -40 -19 -45 -33 -52 -59 -33 l-22 17 20 33 c20 33 34 38 59 23z m296 -10
c-3 -6 -11 -11 -16 -11 -5 0 -4 6 3 14 14 16 24 13 13 -3z m-1198 -23 c-3 -7
-5 -2 -5 12 0 14 2 19 5 13 2 -7 2 -19 0 -25z m-207 -107 c0 -120 -1 -129 -20
-134 -11 -3 -20 -12 -20 -21 0 -24 -21 -19 -75 17 -26 17 -62 41 -79 51 -45
28 -179 118 -191 128 -5 5 10 1 35 -8 25 -9 77 -17 115 -18 58 -1 80 4 127 27
32 16 68 41 80 57 13 16 24 29 26 29 1 1 2 -57 2 -128z m274 94 c3 -9 -3 -19
-14 -25 -15 -8 -21 -6 -30 9 -14 28 -13 31 14 31 13 0 26 -7 30 -15z m266 10
c0 -2 -5 -16 -12 -30 -10 -23 -13 -24 -29 -9 -23 20 -14 44 17 44 13 0 24 -2
24 -5z m860 -5 c0 -5 -2 -10 -4 -10 -3 0 -8 5 -11 10 -3 6 -1 10 4 10 6 0 11
-4 11 -10z m-4575 -40 c12 -19 -12 -10 -31 11 -19 22 -19 22 3 10 12 -6 25
-16 28 -21z m244 -59 c2 -54 -6 -32 -12 34 -4 39 -3 50 2 30 5 -16 9 -45 10
-64z m1661 67 c0 -5 -9 -4 -20 2 -11 6 -20 12 -20 14 0 2 9 2 20 -1 11 -3 20
-9 20 -15z m2518 -81 c38 -51 81 -115 95 -143 34 -68 48 -78 98 -71 l42 5 -39
-41 c-117 -127 -137 -145 -153 -140 -12 4 -13 2 -3 -4 19 -14 -30 -68 -53 -59
-15 5 -16 4 -6 -8 13 -15 11 -17 -39 -45 -42 -22 -124 -48 -139 -43 -8 2 -11
0 -7 -6 7 -11 -21 -25 -35 -16 -5 3 -9 1 -9 -5 0 -6 -9 -15 -19 -21 -25 -13
-71 3 -71 24 0 17 56 50 69 41 5 -3 11 -1 13 3 3 7 53 36 207 118 24 13 47 21
52 18 5 -3 9 1 9 8 0 13 39 44 51 41 8 -3 -4 50 -20 92 -12 29 -119 192 -164
248 -19 25 -20 30 -7 40 8 7 21 25 28 40 6 15 16 25 22 22 5 -3 40 -47 78 -98z
m-2103 69 c13 -10 26 -11 42 -5 22 8 27 2 79 -109 30 -64 87 -182 127 -262 66
-134 75 -146 107 -156 51 -17 52 -47 3 -62 -21 -6 -69 -32 -106 -57 -37 -24
-67 -41 -67 -36 0 5 -7 11 -15 15 -10 4 -15 -1 -15 -15 0 -11 5 -17 10 -14 20
12 9 -8 -26 -48 -36 -43 -104 -169 -104 -194 0 -8 -5 -11 -10 -8 -8 5 -8 11 0
20 8 9 6 14 -7 19 -10 4 -20 1 -25 -9 -5 -8 -14 -12 -20 -9 -6 4 -17 -1 -25
-12 -12 -16 -15 -17 -23 -5 -7 12 -15 13 -46 3 -27 -8 -41 -8 -51 0 -7 6 -13
7 -13 2 0 -4 -5 -3 -12 4 -16 16 -25 15 -32 -4 -3 -8 -2 -12 4 -9 14 8 52 -4
45 -15 -6 -9 -52 -6 -62 4 -4 4 -8 18 -9 31 -1 29 2 30 108 13 92 -14 94 -13
136 76 32 67 50 86 61 68 4 -7 11 -4 19 8 7 12 8 20 2 20 -24 0 -6 30 56 90
58 58 65 68 59 95 -11 62 -13 95 -4 95 5 0 9 -4 9 -9 0 -5 9 -11 20 -14 22 -6
28 8 6 16 -8 3 -12 15 -9 31 5 22 2 25 -22 22 -29 -3 -59 -32 -49 -47 3 -5 3
-9 1 -9 -3 0 -14 15 -25 32 -19 30 -20 34 -5 50 9 10 25 18 35 18 11 0 16 5
13 10 -10 16 -37 12 -60 -10 l-20 -19 -125 162 c-68 89 -124 171 -124 182 -1
17 5 20 39 17 33 -2 45 2 65 23 27 29 38 31 65 11z m155 -6 c0 -5 -2 -10 -4
-10 -3 0 -8 5 -11 10 -3 6 -1 10 4 10 6 0 11 -4 11 -10z m1005 -11 c11 -34
-11 -47 -38 -21 -19 19 -20 24 -7 32 24 15 38 12 45 -11z m194 8 c8 -11 6 -18
-8 -31 -16 -15 -19 -15 -31 -1 -10 12 -10 18 0 30 15 19 24 19 39 2z m-2100
-130 c-28 -48 -55 -87 -60 -87 -5 0 -6 -6 -3 -14 3 -8 -3 -19 -16 -26 -11 -6
-17 -16 -14 -22 5 -8 1 -9 -10 -5 -10 4 -19 7 -21 7 -2 0 -1 9 2 20 3 11 10
17 16 13 6 -3 7 -1 3 5 -8 13 56 146 86 178 10 12 20 31 21 43 1 21 1 21 25
-2 l23 -24 -52 -86z m5266 111 c-2 -7 -14 -51 -25 -98 -40 -160 -43 -170 -50
-170 -4 0 2 33 12 73 10 39 19 87 20 105 1 17 5 32 10 32 4 0 8 4 8 9 0 14 19
61 24 61 3 0 3 -6 1 -12z m-6644 -98 c79 -56 188 -131 242 -167 82 -56 112
-83 93 -83 -3 0 -90 60 -193 133 -103 74 -212 149 -240 168 -45 28 -65 49 -49
49 2 0 68 -45 147 -100z m4035 68 c58 -63 58 -64 39 -104 -9 -19 -15 -38 -12
-40 2 -3 10 9 17 26 7 16 16 30 21 30 9 0 59 -70 59 -83 0 -16 -144 -158 -210
-207 -67 -49 -210 -126 -210 -113 1 5 32 30 70 57 39 27 68 51 66 54 -3 2 -32
-17 -65 -42 -33 -25 -62 -46 -65 -46 -3 0 -6 42 -6 94 0 84 3 100 29 149 19
36 26 59 20 69 -7 12 4 24 44 50 29 20 77 58 107 86 30 28 57 51 61 52 3 0 19
-15 35 -32z m-688 -6 c4 -25 3 -26 -33 -12 -23 9 -25 13 -15 26 18 21 44 13
48 -14z m82 13 c10 -12 8 -16 -15 -25 -39 -15 -45 -13 -45 15 0 20 5 25 24 25
13 0 29 -7 36 -15z m970 5 c0 -5 -2 -10 -4 -10 -3 0 -8 5 -11 10 -3 6 -1 10 4
10 6 0 11 -4 11 -10z m120 -10 c0 -5 -7 -10 -15 -10 -8 0 -15 5 -15 10 0 6 7
10 15 10 8 0 15 -4 15 -10z m-4810 -11 c-61 -9 -142 -37 -112 -38 30 -1 28
-16 -3 -19 -17 -1 -25 3 -25 14 0 8 -4 12 -10 9 -5 -3 -16 -3 -22 2 -9 5 -3
10 17 14 29 7 29 7 -7 8 -20 0 -40 5 -43 11 -4 6 41 9 122 8 93 -1 116 -3 83
-9z m297 -11 c-3 -8 -6 -5 -6 6 -1 11 2 17 5 13 3 -3 4 -12 1 -19z m70 -20
c-3 -7 -5 -2 -5 12 0 14 2 19 5 13 2 -7 2 -19 0 -25z m100 10 c-3 -8 -6 -5 -6
6 -1 11 2 17 5 13 3 -3 4 -12 1 -19z m-464 5 c-7 -2 -19 -2 -25 0 -7 3 -2 5
12 5 14 0 19 -2 13 -5z m4674 -15 c-3 -8 -6 -5 -6 6 -1 11 2 17 5 13 3 -3 4
-12 1 -19z m2198 -30 c-4 -29 -11 -60 -16 -68 -8 -14 -5 42 7 98 9 44 16 21 9
-30z m-6320 -58 c10 -41 19 -82 21 -90 3 -8 -5 3 -16 25 -11 22 -20 50 -20 63
0 13 -4 21 -8 18 -5 -3 -7 9 -5 27 2 29 2 30 -6 7 -6 -16 -9 -19 -10 -8 -1 24
11 51 19 41 4 -4 15 -42 25 -83z m-516 76 c-2 -2 -29 -6 -59 -10 -38 -4 -50
-3 -40 4 13 9 109 15 99 6z m58 -12 c-3 -3 -12 -4 -19 -1 -8 3 -5 6 6 6 11 1
17 -2 13 -5z m1963 -4 c0 -5 -4 -10 -10 -10 -5 0 -10 5 -10 10 0 6 5 10 10 10
6 0 10 -4 10 -10z m-1583 -22 c-3 -8 -6 -5 -6 6 -1 11 2 17 5 13 3 -3 4 -12 1
-19z m6354 -69 l-11 -34 5 34 c3 18 6 45 6 60 l2 26 4 -26 c2 -15 -1 -42 -6
-60z m-6884 65 c-3 -3 -12 -4 -19 -1 -8 3 -5 6 6 6 11 1 17 -2 13 -5z m118 -4
c-82 -16 -140 -23 -134 -16 9 10 88 24 134 24 l40 -1 -40 -7z m4615 4 c0 -8
-19 -13 -24 -6 -3 5 1 9 9 9 8 0 15 -2 15 -3z m2097 -21 c-1 -16 -6 -31 -10
-34 -4 -3 -14 -41 -22 -85 l-14 -79 5 65 c4 56 10 86 29 148 7 21 14 13 12
-15z m-6674 -10 c-7 -2 -19 -2 -25 0 -7 3 -2 5 12 5 14 0 19 -2 13 -5z m409
-33 c3 -16 1 -30 -4 -30 -4 0 -8 14 -8 30 0 17 2 30 4 30 2 0 6 -13 8 -30z
m6186 -113 c-12 -64 -23 -115 -25 -113 -6 6 16 166 28 204 19 58 18 30 -3 -91z
m149 71 c-3 -7 -5 -2 -5 12 0 14 2 19 5 13 2 -7 2 -19 0 -25z m-6740 9 c-4
-11 5 -13 41 -9 26 2 55 8 64 13 9 5 29 9 45 8 19 -1 6 -7 -37 -18 -36 -10
-75 -21 -86 -25 -28 -9 -64 22 -42 35 18 12 21 11 15 -4z m76 6 c-7 -2 -21 -2
-30 0 -10 3 -4 5 12 5 17 0 24 -2 18 -5z m5477 0 c0 -9 -42 -43 -52 -43 -9 0
-8 4 2 11 11 8 12 12 3 16 -24 9 -13 22 17 20 16 -1 30 -3 30 -4z m1017 -40
c-3 -10 -5 -2 -5 17 0 19 2 27 5 18 2 -10 2 -26 0 -35z m-17 0 c-1 -24 -2 -26
-11 -10 -5 9 -7 22 -4 27 10 17 15 11 15 -17z m107 -5 c-3 -7 -5 -2 -5 12 0
14 2 19 5 13 2 -7 2 -19 0 -25z m-6427 11 c76 4 36 -11 -62 -24 -92 -11 -128
-10 -128 5 0 12 83 28 115 22 17 -3 50 -5 75 -3z m6285 -86 c-11 -117 -25
-142 -18 -33 3 52 7 98 10 103 12 20 14 0 8 -70z m305 56 c-43 -34 -67 -42
-30 -9 19 16 39 30 45 30 5 0 -1 -9 -15 -21z m-6510 -3 c0 -2 -11 -6 -25 -8
-13 -3 -22 -1 -19 3 5 9 44 13 44 5z m1149 -12 c2 -2 2 -7 -2 -10 -3 -3 -16 2
-29 11 l-23 17 25 -7 c14 -4 27 -9 29 -11z m2931 6 c0 -5 -8 -10 -17 -10 -15
0 -16 2 -3 10 19 12 20 12 20 0z m1095 -10 c3 -5 2 -10 -4 -10 -5 0 -13 5 -16
10 -3 6 -2 10 4 10 5 0 13 -4 16 -10z m999 -67 c-4 -43 -11 -87 -15 -98 -6
-14 -7 -9 -3 15 8 46 -3 35 -16 -16 -9 -35 -9 -32 -5 26 6 80 11 103 25 129
18 35 21 24 14 -56z m-894 52 c0 -2 -7 -5 -15 -9 -9 -3 -15 0 -15 9 0 9 6 12
15 9 8 -4 15 -7 15 -9z m-5363 -1 c-3 -3 -12 -4 -19 -1 -8 3 -5 6 6 6 11 1 17
-2 13 -5z m53 1 c0 -2 -12 -11 -27 -19 -27 -15 -27 -15 22 -10 28 3 58 7 68 9
9 2 17 0 17 -5 0 -11 -121 -23 -144 -14 -16 6 -14 10 15 25 35 19 49 23 49 14z
m1063 -2 c-7 -2 -19 -2 -25 0 -7 3 -2 5 12 5 14 0 19 -2 13 -5z m5203 -19 c-4
-9 -9 -15 -11 -12 -3 3 -3 13 1 22 4 9 9 15 11 12 3 -3 3 -13 -1 -22z m-5111
-11 c-2 -10 -4 -19 -5 -20 -2 -2 -3 -9 -4 -15 -1 -7 -9 -12 -19 -12 -20 2 -23
-12 -4 -19 7 -4 8 -6 1 -6 -6 -1 -17 5 -23 13 -15 18 5 67 24 60 7 -3 16 -1
20 5 9 16 14 13 10 -6z m5283 -16 c-14 -12 -56 -46 -92 -76 -36 -29 -63 -57
-60 -62 3 -5 -1 -7 -8 -4 -7 3 -72 -45 -145 -105 -73 -61 -135 -110 -138 -110
-11 0 -4 28 8 33 12 4 316 242 412 322 22 18 42 31 45 28 3 -2 -7 -14 -22 -26z
m-1453 6 c38 -94 61 -179 90 -338 19 -99 19 -106 0 -99 -8 4 -15 1 -15 -5 0
-6 5 -10 11 -8 6 1 13 -6 14 -15 3 -18 -19 -25 -29 -9 -3 5 -15 58 -27 117
-11 60 -39 165 -61 233 -32 100 -37 125 -26 132 21 13 35 11 43 -8z m1825 7
c0 -6 -36 -10 -97 -10 -54 0 -109 -3 -123 -6 -17 -5 -22 -3 -15 4 13 14 34 16
143 20 59 2 92 -1 92 -8z m-6524 -11 c3 -6 2 -15 -2 -19 -12 -12 -38 5 -30 19
9 14 23 14 32 0z m5981 -31 c-3 -8 -6 -5 -6 6 -1 11 2 17 5 13 3 -3 4 -12 1
-19z m505 10 c-25 -10 -130 -9 -136 1 -3 4 30 8 74 7 43 -1 71 -4 62 -8z
m-3522 -38 c0 -20 -5 -30 -15 -30 -18 0 -19 14 -5 41 15 27 20 24 20 -11z
m-2778 -86 c140 -102 174 -130 121 -98 -51 30 -283 195 -283 201 0 12 37 -11
162 -103z m4182 91 c-4 -8 -10 -12 -15 -9 -11 6 -2 24 11 24 5 0 7 -7 4 -15z
m2071 5 c-8 -13 -85 -13 -105 0 -11 7 4 10 48 10 40 0 61 -4 57 -10z m-5960
-24 c8 -7 11 -17 7 -21 -4 -5 1 -5 11 -2 19 7 24 -8 5 -16 -22 -8 -33 -3 -30
16 2 9 -2 17 -7 17 -6 0 -11 5 -11 10 0 14 9 12 25 -4z m149 0 c-3 -9 -12 -12
-22 -9 -15 6 -9 11 25 22 1 1 0 -5 -3 -13z m-52 -21 c6 -28 -6 -34 -16 -9 -5
14 0 34 8 34 2 0 6 -11 8 -25z m252 10 c-22 -16 -44 -19 -44 -6 0 8 16 14 54
20 6 0 1 -6 -10 -14z m5499 8 c-7 -2 -19 -2 -25 0 -7 3 -2 5 12 5 14 0 19 -2
13 -5z m-525 -81 l-1 -67 -7 65 -6 65 -8 -72 c-5 -40 -15 -81 -23 -90 -12 -15
-14 -15 -10 -2 3 9 8 38 12 65 17 124 46 148 43 36z m595 57 c-8 -8 -32 -8
-85 -1 l-73 9 85 2 c61 1 81 -2 73 -10z m-5573 -19 c0 -5 -4 -10 -10 -10 -5 0
-10 5 -10 10 0 6 5 10 10 10 6 0 10 -4 10 -10z m5357 4 c-3 -3 -12 -4 -19 -1
-8 3 -5 6 6 6 11 1 17 -2 13 -5z m82 -10 c10 -9 -45 -3 -59 6 -11 7 -5 8 20 4
19 -4 37 -8 39 -10z m-5612 -10 c0 -6 -9 -9 -19 -6 -10 2 -18 7 -18 11 0 4 8
7 18 7 10 0 19 -5 19 -12z m2250 -6 c-3 -8 -6 -5 -6 6 -1 11 2 17 5 13 3 -3 4
-12 1 -19z m63 -13 c0 -24 -5 -35 -15 -35 -10 0 -15 11 -15 35 0 24 5 35 15
35 10 0 15 -11 15 -35z m60 0 c0 -24 -5 -35 -15 -35 -10 0 -15 11 -15 35 0 24
5 35 15 35 10 0 15 -11 15 -35z m3277 29 c-3 -3 -12 -4 -19 -1 -8 3 -5 6 6 6
11 1 17 -2 13 -5z m73 2 c0 -8 -51 -13 -56 -5 -3 5 9 9 25 9 17 0 31 -2 31 -4z
m-533 -53 c-3 -10 -5 -2 -5 17 0 19 2 27 5 18 2 -10 2 -26 0 -35z m382 16 c44
0 51 -2 33 -9 -24 -10 -65 -7 -142 10 l-45 9 49 -4 c27 -3 74 -5 105 -6z
m-5559 -9 c-20 -13 -40 -13 -40 0 0 6 12 10 28 10 21 0 24 -2 12 -10z m2237
-12 c-3 -8 -6 -5 -6 6 -1 11 2 17 5 13 3 -3 4 -12 1 -19z m3313 -8 c36 -1 48
-4 35 -8 -27 -10 -165 -3 -165 8 0 5 17 7 38 5 20 -1 62 -4 92 -5z m-3313 -42
c-3 -8 -6 -5 -6 6 -1 11 2 17 5 13 3 -3 4 -12 1 -19z m63 5 c0 -7 -6 -13 -12
-14 -10 0 -10 -2 0 -6 6 -2 12 -9 12 -14 0 -6 -4 -8 -9 -5 -5 4 -12 0 -14 -6
-3 -7 -6 3 -6 23 -1 25 3 36 14 36 8 0 15 -6 15 -14z m3248 3 c1 -2 -3 -7 -10
-13 -8 -6 -45 -3 -103 8 l-90 18 100 -5 c55 -3 101 -7 103 -8z m-55 -33 c5 -3
3 -9 -5 -14 -15 -8 -186 15 -197 27 -7 8 189 -5 202 -13z m-1726 -60 c-3 -10
-5 -2 -5 17 0 19 2 27 5 18 2 -10 2 -26 0 -35z m1576 40 c-7 -2 -21 -2 -30 0
-10 3 -4 5 12 5 17 0 24 -2 18 -5z m-90 -20 c-7 -2 -19 -2 -25 0 -7 3 -2 5 12
5 14 0 19 -2 13 -5z m-769 -18 c-4 -8 -10 -12 -15 -9 -11 6 -2 24 11 24 5 0 7
-7 4 -15z m831 -5 c3 -5 -1 -10 -9 -10 -8 0 -18 5 -21 10 -3 6 1 10 9 10 8 0
18 -4 21 -10z m-6145 -20 c15 -24 -2 -50 -41 -60 -21 -6 -45 -20 -53 -32 -15
-20 -13 -26 16 -77 58 -104 75 -136 153 -286 42 -82 80 -154 84 -158 10 -11
24 8 64 84 19 35 50 91 69 124 93 158 119 208 134 252 l16 47 -26 23 c-15 13
-35 23 -45 23 -26 0 -44 25 -36 50 6 19 14 20 158 21 84 0 169 2 189 4 25 3
44 -2 58 -13 32 -26 16 -49 -46 -67 -79 -23 -122 -72 -249 -283 -11 -19 -39
-63 -62 -99 -24 -36 -43 -70 -43 -75 0 -4 -11 -25 -23 -46 -13 -20 -41 -72
-61 -115 l-38 -77 4 -236 3 -236 33 -29 c18 -16 43 -29 56 -29 35 0 84 -20 90
-36 3 -9 1 -24 -4 -34 -9 -17 -19 -19 -83 -15 -64 4 -301 6 -397 3 -79 -2 -82
-1 -78 35 3 29 7 32 43 38 47 6 73 19 100 49 18 20 20 39 23 249 l4 226 -65
125 c-90 176 -252 454 -310 532 -24 33 -74 58 -116 58 -57 0 -64 64 -8 72 12
2 125 2 251 1 167 -1 231 -4 236 -13z m6185 10 c3 -5 1 -10 -4 -10 -6 0 -11 5
-11 10 0 6 2 10 4 10 3 0 8 -4 11 -10z m-1954 -39 c3 -38 -4 -67 -19 -85 -10
-11 -11 -16 -4 -12 15 9 17 -20 2 -29 -6 -4 -8 -11 -5 -16 4 -5 0 -9 -8 -9 -8
0 -17 -7 -21 -15 -3 -8 -2 -15 2 -15 4 0 8 -9 8 -20 0 -12 -4 -16 -9 -11 -5 5
-17 7 -26 4 -13 -5 -14 -3 -3 8 6 7 12 21 12 31 0 10 4 18 10 18 5 0 14 9 20
19 9 18 7 20 -20 19 -17 -1 -30 -5 -30 -10 0 -13 -17 -9 -23 6 -10 26 4 58 24
53 26 -7 24 7 -3 25 -24 16 -19 48 7 48 12 0 15 -6 10 -22 -4 -17 -4 -19 3 -9
7 9 19 11 36 7 19 -5 26 -3 26 8 0 10 -6 13 -15 10 -8 -4 -15 -2 -15 3 0 28
39 22 41 -6z m1089 14 c0 -2 -7 -5 -15 -9 -9 -3 -15 0 -15 9 0 9 6 12 15 9 8
-4 15 -7 15 -9z m845 5 c7 -12 -47 -12 -120 0 -47 7 -46 7 32 9 45 0 85 -3 88
-9z m-5184 -67 c1 -32 1 -61 0 -65 -6 -43 -1 -435 6 -441 3 -4 18 2 33 13 15
11 58 34 95 51 58 27 76 31 120 26 101 -10 179 -69 210 -157 15 -43 39 -266
30 -281 -5 -7 -5 -82 -2 -246 2 -91 12 -109 70 -129 24 -8 32 -17 32 -35 l0
-24 -190 0 c-183 0 -190 1 -190 20 0 14 13 26 42 39 29 13 45 28 53 49 12 36
13 364 1 460 -14 108 -58 157 -146 163 -48 3 -102 -23 -139 -66 -20 -24 -26
-43 -26 -78 0 -26 -1 -58 -1 -72 -3 -75 9 -407 15 -421 4 -9 26 -25 49 -35 29
-13 42 -25 42 -39 0 -19 -8 -20 -188 -25 -150 -4 -191 -2 -200 8 -16 20 3 44
41 54 17 5 40 20 52 35 21 27 21 31 18 529 -3 562 1 533 -76 551 -32 8 -37 13
-37 37 0 25 7 31 95 68 52 22 104 47 115 54 11 8 32 14 47 14 27 0 28 -2 29
-57z m4504 49 c6 -4 11 -15 13 -25 2 -13 -14 -25 -64 -48 -38 -16 -77 -31 -88
-32 -12 -1 -24 -6 -27 -11 -10 -14 -39 1 -39 20 0 14 7 15 44 10 45 -7 82 5
99 32 4 6 15 12 22 12 8 0 14 3 14 8 -6 35 5 49 26 34z m365 -11 c15 -28 13
-33 -10 -21 -11 6 -20 17 -20 25 0 21 17 18 30 -4z m-490 -10 c0 -5 3 -17 6
-26 5 -13 2 -16 -16 -13 -13 1 -25 9 -28 16 -2 8 2 10 15 5 16 -6 16 -5 4 10
-12 15 -11 17 3 17 9 0 16 -4 16 -9z m-3214 -79 c-9 -8 -13 0 -19 38 l-6 35
15 -34 c8 -18 13 -36 10 -39z m1590 41 c-10 -10 -19 5 -10 18 6 11 8 11 12 0
2 -7 1 -15 -2 -18z m84 7 c0 -5 -7 -10 -16 -10 -8 0 -12 5 -9 10 3 6 10 10 16
10 5 0 9 -4 9 -10z m1969 -6 c-7 -9 -47 -44 -89 -77 -41 -34 -77 -64 -80 -67
-10 -11 -126 -106 -170 -139 -121 -92 -71 -44 131 124 198 166 241 198 208
159z m-4391 -36 c104 -21 152 -36 152 -45 0 -7 5 -13 10 -13 6 0 10 5 10 10 0
17 30 11 36 -7 3 -10 10 -26 15 -36 17 -31 -18 -32 -46 0 -18 19 -28 24 -32
16 -2 -7 -11 -13 -19 -13 -8 0 -14 -9 -14 -20 0 -28 3 -35 17 -34 6 1 9 -5 6
-12 -3 -8 -10 -11 -17 -7 -6 3 -6 1 2 -8 32 -34 -1 -67 -34 -34 -21 21 -45 19
-37 -2 4 -11 -3 -7 -18 9 -30 34 -74 29 -66 -7 3 -17 0 -22 -12 -20 -9 2 -21
4 -28 4 -6 1 -14 15 -18 31 -7 31 -36 55 -50 42 -5 -4 -5 1 -2 10 8 21 -12 36
-24 17 -4 -7 -11 -10 -15 -7 -3 4 1 14 10 23 18 18 21 30 7 20 -5 -3 -12 -1
-16 5 -3 5 -2 10 3 10 5 0 10 11 10 25 0 14 -4 25 -9 25 -5 0 -6 7 -3 15 4 8
1 15 -5 15 -6 0 -11 5 -11 10 0 16 36 12 198 -22z m1109 16 c-3 -3 -12 -4 -19
-1 -8 3 -5 6 6 6 11 1 17 -2 13 -5z m-343 -50 c4 -10 1 -14 -6 -12 -15 5 -23
28 -10 28 5 0 13 -7 16 -16z m3116 10 c0 -9 -33 -33 -45 -33 -5 0 -2 4 8 10 9
6 15 14 12 20 -4 5 1 9 9 9 9 0 16 -3 16 -6z m-3110 -56 c0 -19 -2 -20 -10 -8
-13 19 -13 30 0 30 6 0 10 -10 10 -22z m-310 -38 c10 0 20 -8 22 -18 3 -11 0
-19 -8 -19 -7 0 -11 4 -7 10 3 5 -5 7 -18 5 -18 -2 -25 -10 -27 -30 -2 -16 -7
-28 -12 -28 -5 0 -7 6 -4 14 3 7 -2 16 -10 19 -10 4 -16 1 -16 -8 0 -7 -4 -16
-9 -19 -4 -3 -3 12 3 34 9 37 26 55 26 29 0 -5 5 -7 10 -4 6 4 7 11 4 17 -5 8
-1 9 10 5 10 -4 26 -7 36 -7z m3297 -5 c0 -8 -4 -15 -9 -15 -10 0 -11 14 -1
23 9 10 10 9 10 -8z m83 -34 c0 -5 -7 -11 -15 -15 -15 -5 -20 5 -8 17 9 10 23
9 23 -2z m-3665 -40 c9 -16 -9 -20 -23 -5 -10 12 -10 14 2 14 8 0 17 -4 21 -9z
m52 -7 c-3 -3 -12 -4 -19 -1 -8 3 -5 6 6 6 11 1 17 -2 13 -5z m-950 -79 c3
-20 3 -20 -5 0 -9 19 -9 19 -20 0 -9 -16 -13 -18 -23 -7 -11 10 -10 12 5 12
10 0 14 5 10 11 -4 7 1 10 12 7 10 -2 20 -12 21 -23z m-32 -41 c27 10 35 -2
20 -31 -8 -15 -12 -30 -9 -34 2 -4 -5 -5 -16 -2 -15 4 -20 0 -20 -16 0 -11 -4
-21 -10 -21 -5 0 -10 7 -10 16 0 8 -4 13 -9 9 -5 -3 -13 0 -17 6 -5 8 -3 9 6
4 9 -5 10 -2 5 14 -4 12 -2 21 4 21 6 0 11 -5 11 -11 0 -5 4 -8 9 -4 5 3 8 20
6 38 -3 21 -1 27 4 18 5 -8 16 -11 26 -7z m39 -50 c3 -8 2 -12 -4 -9 -6 3 -10
10 -10 16 0 14 7 11 14 -7z m1462 -30 c37 -23 55 -43 76 -84 25 -50 28 -67 30
-175 1 -66 1 -174 -1 -241 -2 -145 5 -197 31 -221 19 -17 21 -17 50 0 40 23
64 22 71 -4 8 -31 1 -41 -50 -74 -117 -75 -175 -72 -237 10 l-28 36 -36 -22
c-118 -72 -176 -91 -248 -79 -94 15 -150 75 -169 182 -11 59 11 131 57 183 47
53 78 70 253 141 l130 52 3 58 c2 44 -2 68 -19 100 -50 98 -183 99 -210 1 -29
-107 -47 -127 -115 -127 -54 0 -68 17 -61 76 4 38 13 54 52 94 48 49 143 107
200 121 16 5 62 7 101 5 58 -2 81 -8 120 -32z m604 12 c5 -13 9 -48 8 -76 0
-28 2 -53 4 -55 2 -2 19 17 38 42 58 77 102 106 168 111 53 4 59 2 94 -30 53
-47 55 -99 7 -147 -36 -36 -64 -39 -119 -11 -55 28 -82 25 -120 -12 -61 -62
-63 -72 -66 -317 -2 -151 1 -231 8 -245 17 -32 39 -45 75 -46 29 0 63 -21 63
-38 -1 -28 -22 -31 -196 -31 -99 0 -191 -2 -205 -6 -30 -7 -53 14 -43 39 3 9
28 26 55 37 27 12 50 29 53 38 6 22 10 206 8 392 -2 175 -7 188 -67 198 -21 3
-43 14 -48 23 -17 25 12 51 98 87 41 17 89 40 107 51 44 26 67 25 78 -4z m701
7 c1 -35 8 -75 13 -81 3 -3 14 2 23 10 10 9 43 31 73 49 50 31 62 33 135 34
96 0 151 -24 190 -83 47 -71 55 -127 62 -407 6 -294 9 -307 70 -322 31 -7 38
-13 38 -33 0 -22 -5 -26 -45 -30 -25 -3 -66 -2 -93 3 -26 4 -62 4 -80 0 -17
-4 -63 -6 -102 -3 -56 4 -70 8 -73 23 -2 11 8 23 29 35 18 9 44 27 57 40 l24
23 -4 257 c-3 249 -4 258 -27 298 -28 49 -55 64 -117 64 -52 0 -102 -20 -139
-57 l-25 -26 0 -268 c0 -147 3 -275 6 -284 4 -9 27 -25 51 -36 44 -19 63 -43
47 -59 -10 -10 -48 -11 -250 -10 -132 1 -142 2 -147 20 -6 22 25 50 54 50 9 0
27 9 40 19 l24 19 0 275 c-1 243 -3 277 -18 300 -12 19 -26 27 -47 27 -25 0
-60 21 -60 36 0 23 29 46 73 59 28 9 77 29 107 44 66 34 110 39 111 14z m1150
-16 c57 -30 67 -40 94 -92 l30 -59 -3 -225 c-3 -253 2 -311 28 -344 18 -22 19
-22 54 -3 43 23 66 16 66 -22 0 -48 -107 -112 -187 -112 -27 0 -43 9 -79 46
l-46 45 -93 -47 c-88 -44 -95 -46 -161 -42 -130 8 -200 85 -198 218 2 137 61
191 319 290 l120 45 3 47 c4 66 -13 119 -49 153 -25 25 -38 30 -80 29 -56 -1
-99 -31 -99 -71 0 -36 -25 -88 -51 -107 -30 -20 -93 -21 -113 0 -56 55 25 173
167 242 69 34 78 36 158 40 46 2 66 -3 120 -31z m607 21 c7 -7 12 -26 12 -43
0 -46 8 -48 51 -15 54 44 100 60 169 60 78 0 126 -20 171 -71 l37 -41 53 40
c30 22 70 48 89 58 48 24 153 25 200 0 112 -59 140 -136 140 -386 1 -91 2
-198 3 -238 2 -40 -1 -75 -5 -78 -15 -10 29 -69 58 -78 49 -14 59 -22 59 -47
l0 -24 -140 -2 c-77 -1 -157 -4 -177 -7 -48 -8 -68 1 -68 30 0 17 10 29 39 43
21 11 41 27 45 36 10 28 7 471 -5 524 -15 72 -54 111 -111 111 -50 0 -104 -26
-131 -62 -17 -23 -19 -45 -18 -284 2 -286 5 -302 61 -320 39 -13 56 -34 47
-58 -5 -13 -26 -16 -129 -18 -251 -4 -253 -4 -256 26 -3 22 2 29 32 41 66 28
68 34 64 312 -3 224 -5 252 -23 288 -41 82 -136 95 -213 30 l-39 -34 -1 -263
c-2 -195 1 -269 11 -288 7 -14 32 -34 55 -44 36 -17 42 -24 40 -45 -3 -25 -4
-25 -99 -24 -53 0 -101 3 -106 6 -6 4 -48 2 -94 -3 -67 -8 -86 -7 -97 4 -22
21 2 54 48 66 22 6 44 19 50 29 5 11 11 136 12 288 3 243 1 271 -15 296 -9 15
-27 27 -38 27 -55 0 -78 46 -37 74 29 20 62 20 93 0 16 -11 34 -14 54 -9 33 7
52 25 27 25 -8 0 -18 -4 -21 -10 -9 -14 -38 -12 -60 4 -19 14 -19 15 5 24 46
19 55 23 90 42 42 23 52 24 68 8z m-4638 -58 c-8 -5 -18 -6 -24 -3 -5 4 -1 10
10 13 24 9 34 2 14 -10z m10 -38 c0 -7 5 -10 10 -7 6 3 10 -1 10 -10 0 -9 -4
-13 -10 -10 -7 4 -7 -3 0 -20 9 -24 8 -26 -10 -20 -11 4 -20 3 -19 -2 3 -13
-25 -73 -33 -73 -4 0 -8 5 -8 11 0 5 -3 8 -8 5 -4 -2 -7 26 -6 62 1 56 4 67
18 64 9 -2 16 2 16 7 0 5 9 9 20 8 11 -1 20 -7 20 -15z m13 -109 c-7 -2 -10
-12 -7 -21 4 -13 3 -13 -6 2 -10 14 -10 20 1 27 7 4 16 5 19 2 3 -3 0 -8 -7
-10z m-23 -23 c0 -5 -4 -10 -10 -10 -5 0 -10 5 -10 10 0 6 5 10 10 10 6 0 10
-4 10 -10z m-1017 -667 c-7 -2 -19 -2 -25 0 -7 3 -2 5 12 5 14 0 19 -2 13 -5z
m1326 -97 c8 -9 10 -93 9 -276 -2 -192 1 -265 9 -267 6 -2 30 9 53 26 155 112
337 56 391 -120 18 -58 21 -99 23 -316 2 -275 6 -293 63 -308 37 -9 53 -23 53
-46 0 -18 -11 -19 -195 -19 l-195 0 0 26 c0 21 8 29 39 41 22 9 44 26 50 40
18 39 15 447 -4 510 -33 111 -132 146 -229 82 -25 -17 -51 -40 -57 -50 -12
-22 -7 -515 6 -542 4 -11 27 -27 51 -38 35 -15 44 -23 44 -44 l0 -25 -185 0
c-102 0 -188 0 -192 0 -5 0 -8 12 -8 26 0 21 7 28 38 39 73 25 69 -14 67 590
-1 143 -1 299 0 347 2 105 -15 148 -58 148 -42 0 -66 22 -59 52 6 21 24 33 94
63 49 21 104 46 123 56 41 23 54 23 69 5z m4522 -7 c7 -13 9 -41 4 -74 -3 -29
-7 -297 -7 -594 -1 -605 -5 -570 70 -588 32 -8 37 -13 37 -38 l0 -30 -85 3
c-47 2 -134 5 -195 5 -106 2 -110 3 -113 25 -3 19 5 26 47 44 44 18 52 26 60
57 7 29 16 317 12 371 -1 8 -3 148 -4 310 -2 207 -7 302 -15 317 -8 14 -27 25
-55 30 -38 8 -42 11 -42 38 0 32 14 42 100 75 21 8 62 27 89 42 62 33 82 34
97 7z m-5451 -30 c0 -5 -7 -9 -15 -9 -15 0 -20 12 -9 23 8 8 24 -1 24 -14z
m1178 -29 c23 -10 42 -21 42 -24 0 -6 -73 19 -98 33 -31 19 10 12 56 -9z m72
5 c16 -19 0 -19 -26 0 -16 12 -16 14 -3 15 9 0 22 -7 29 -15z m63 -15 c3 0 4
7 1 15 -9 22 3 18 34 -10 15 -14 21 -25 15 -25 -7 0 -15 5 -18 10 -3 6 -11 10
-17 10 -6 0 -3 -10 8 -21 14 -17 9 -15 -23 7 -23 16 -42 33 -43 38 0 5 8 2 18
-7 10 -10 21 -17 25 -17z m124 7 c15 -13 41 -31 56 -41 16 -10 27 -20 24 -23
-3 -2 -23 8 -46 22 -22 15 -45 24 -50 20 -6 -3 -14 1 -17 10 -4 9 -12 14 -18
12 -7 -3 -20 1 -31 9 -17 13 -16 14 17 14 23 0 47 -8 65 -23z m267 8 c3 -8 1
-15 -4 -15 -6 0 -10 7 -10 15 0 8 2 15 4 15 2 0 6 -7 10 -15z m2296 0 c0 -13
-48 -15 -367 -15 -203 0 -702 -2 -1111 -3 -701 -2 -742 -1 -742 16 0 16 60 17
1110 17 980 0 1110 -2 1110 -15z m50 11 c0 -2 -7 -9 -15 -16 -12 -10 -15 -10
-15 4 0 9 7 16 15 16 8 0 15 -2 15 -4z m800 -17 l0 -22 -276 7 c-220 6 -280
10 -291 22 -13 12 24 14 276 14 290 0 291 0 291 -21z m-3240 -35 c33 -24 60
-46 60 -50 0 -7 -12 1 -72 44 -27 19 -48 29 -48 23 0 -6 -4 -11 -10 -11 -5 0
-10 7 -10 16 0 8 -4 12 -10 9 -5 -3 -18 -2 -27 3 -13 8 -9 10 20 10 29 0 52
-11 97 -44z m5050 3 c120 -46 305 -114 350 -127 25 -7 48 -16 52 -19 13 -11
-356 6 -383 17 -30 12 -84 73 -116 131 l-23 40 28 -8 c15 -5 56 -20 92 -34z
m-6349 9 c121 -11 244 -49 254 -78 2 -7 9 -68 15 -136 11 -127 5 -162 -25
-162 -19 0 -55 40 -55 60 0 43 -82 164 -127 188 -95 51 -252 53 -333 4 -30
-19 -120 -103 -120 -113 0 -4 -13 -29 -30 -56 -48 -79 -70 -186 -69 -337 0
-121 8 -171 42 -281 16 -50 60 -119 104 -162 68 -67 140 -95 244 -96 140 0
215 53 294 209 37 72 43 79 70 79 30 0 30 -1 28 -49 -1 -45 -23 -161 -41 -225
-15 -53 -142 -90 -327 -96 -138 -5 -236 14 -331 61 -137 68 -221 164 -274 313
-74 211 -51 434 65 611 83 126 161 185 310 236 67 22 225 46 246 37 3 -1 30
-5 60 -7z m964 -31 c39 -32 28 -32 -15 0 -19 14 -30 25 -24 25 5 0 23 -11 39
-25z m2946 10 c35 -18 69 -70 69 -103 0 -59 -71 -117 -127 -106 -55 11 -93 59
-93 117 0 31 7 46 34 73 38 38 70 43 117 19z m-2640 -22 c13 -17 13 -17 -6 -3
-11 8 -22 16 -24 17 -2 2 0 3 6 3 6 0 17 -8 24 -17z m196 -75 c-3 -8 -6 -5 -6
6 -1 11 2 17 5 13 3 -3 4 -12 1 -19z m63 14 c0 -14 -11 -21 -26 -15 -8 3 -11
9 -8 14 7 11 34 12 34 1z m-410 -12 c0 -5 -4 -10 -9 -10 -6 0 -13 5 -16 10 -3
6 1 10 9 10 9 0 16 -4 16 -10z m305 1 c-7 -13 -265 -13 -265 0 0 5 57 9 136 9
81 0 133 -4 129 -9z m1734 -1 c68 0 122 -2 119 -5 -5 -5 -679 -20 -718 -16
-37 3 -518 10 -747 11 -139 0 -253 4 -253 8 0 5 332 7 738 5 405 -1 793 -3
861 -3z m171 3 c0 -5 -5 -15 -10 -23 -8 -12 -10 -11 -10 8 0 12 5 22 10 22 6
0 10 -3 10 -7z m198 -10 c-21 -2 -57 -2 -80 0 -24 2 -7 4 37 4 44 0 63 -2 43
-4z m802 -3 c0 -13 -30 -13 -50 0 -11 7 -7 10 18 10 17 0 32 -4 32 -10z m35 0
c3 -5 -1 -10 -9 -10 -9 0 -16 5 -16 10 0 6 4 10 9 10 6 0 13 -4 16 -10z m413
-4 c10 -11 -332 -6 -348 5 -11 7 37 9 163 5 98 -2 181 -7 185 -10z m1152 5 c0
-15 -41 -19 -155 -16 -60 2 -202 5 -315 6 -188 3 -178 4 125 9 182 3 333 6
338 8 4 1 7 -2 7 -7z m274 3 c9 -3 16 -10 16 -14 0 -15 -49 -20 -76 -8 l-27
13 24 6 c33 10 45 10 63 3z m-236 -18 c-7 -8 -15 -12 -17 -11 -5 6 10 25 20
25 5 0 4 -6 -3 -14z m122 4 c0 -5 -4 -10 -10 -10 -5 0 -10 5 -10 10 0 6 5 10
10 10 6 0 10 -4 10 -10z m200 -14 c0 -2 -7 -7 -16 -10 -8 -3 -12 -2 -9 4 6 10
25 14 25 6z m15 -95 c-20 -33 -40 -63 -46 -66 -16 -11 14 49 43 83 15 18 28
38 28 44 0 6 3 9 6 5 3 -3 -10 -33 -31 -66z m-6480 11 c9 -6 55 -136 55 -154
0 -3 -30 -8 -67 -12 -38 -3 -92 -9 -120 -12 -36 -4 -53 -2 -53 6 0 6 5 8 11 4
7 -4 9 0 5 13 -5 14 1 23 19 33 14 8 21 16 15 20 -6 4 1 12 15 20 18 9 25 20
22 32 -3 10 -1 16 4 12 5 -3 9 -12 9 -20 0 -8 4 -13 10 -9 5 3 7 12 4 19 -4 9
3 14 21 14 28 0 53 17 42 28 -3 4 -13 -1 -22 -10 -9 -9 -22 -13 -28 -9 -8 5
-6 9 6 11 9 2 17 8 17 13 0 11 21 12 35 1z m-935 -193 c30 -28 44 -44 30 -35
-34 22 -47 20 -25 -4 20 -22 14 -28 -7 -7 -7 6 -39 30 -70 51 -32 22 -58 43
-58 48 0 13 12 10 33 -9 19 -17 19 -17 12 5 -6 21 -5 22 12 13 10 -6 43 -34
73 -62z m71 15 c101 -67 108 -73 49 -45 l-45 22 30 -27 30 -26 -50 26 c-27 15
-70 45 -95 66 -70 61 -20 52 81 -16z m4050 46 c14 -8 19 -21 19 -55 0 -49 8
-55 34 -26 29 32 146 84 190 84 70 1 127 -22 172 -67 68 -67 81 -141 83 -456
1 -201 4 -228 20 -250 10 -14 31 -27 46 -30 32 -6 51 -30 42 -53 -5 -14 -31
-16 -194 -14 -187 2 -188 2 -191 25 -3 18 4 26 32 37 64 27 66 34 67 306 2
267 -3 296 -55 337 -58 45 -146 36 -211 -22 l-36 -31 -1 -265 c-1 -158 2 -272
8 -283 5 -9 30 -27 54 -40 31 -15 45 -28 45 -42 0 -19 -7 -20 -200 -20 l-200
0 0 24 c0 20 8 26 47 38 29 8 52 22 60 36 8 16 12 97 11 284 -1 295 -3 305
-67 317 -41 8 -50 18 -42 51 4 17 17 27 44 35 20 6 73 28 117 50 96 46 82 42
106 30z m-4328 -39 c64 -49 117 -95 97 -85 -21 10 -160 114 -160 120 0 10 13
2 63 -35z m113 -17 c130 -106 124 -113 -8 -11 -43 33 -78 62 -78 64 0 12 26
-4 86 -53z m254 31 c13 -14 28 -25 33 -25 6 0 0 12 -14 27 -27 30 -15 24 54
-25 55 -40 62 -53 11 -23 -19 12 -40 19 -45 15 -16 -10 -48 6 -54 28 -5 14
-10 17 -18 9 -7 -7 -6 -15 3 -26 17 -20 1 -19 -22 2 -22 20 -24 35 -3 27 8 -4
15 -1 15 5 0 18 15 13 40 -14z m2488 -47 c2 -38 6 -68 11 -68 4 0 22 18 40 41
55 68 106 99 163 99 118 0 175 -95 102 -173 -37 -40 -65 -43 -129 -13 -64 31
-75 28 -128 -34 -31 -36 -48 -84 -46 -127 0 -21 0 -71 -1 -235 -1 -109 3 -163
12 -177 14 -23 50 -41 82 -41 31 0 59 -23 54 -46 -4 -20 -3 -20 -362 -23 -39
-1 -74 3 -79 8 -19 19 -1 45 41 59 75 25 74 18 73 425 -1 143 -3 159 -21 177
-11 11 -33 20 -49 20 -16 0 -34 7 -41 15 -21 26 16 63 90 93 36 14 81 36 100
48 19 13 46 22 60 21 24 -2 25 -6 28 -69z m852 57 c14 -8 34 -14 45 -15 39 0
144 -93 180 -158 59 -104 79 -255 50 -366 -61 -235 -239 -362 -455 -324 -146
26 -256 143 -296 314 -38 163 21 364 135 463 63 54 103 77 158 90 60 14 155
12 183 -4z m2327 -20 c29 -15 58 -35 63 -45 10 -19 -2 -115 -20 -158 -15 -35
-58 -26 -87 18 -13 19 -38 53 -57 75 l-35 40 -75 0 c-69 0 -77 -2 -106 -30
-17 -16 -43 -54 -58 -85 -25 -51 -27 -64 -27 -180 0 -106 3 -132 21 -171 48
-104 126 -159 234 -166 66 -5 88 4 175 71 21 15 45 -1 45 -31 0 -20 -16 -42
-60 -85 -97 -95 -203 -128 -313 -98 -80 21 -119 42 -166 89 -83 83 -114 173
-115 331 0 76 4 108 23 159 55 152 139 236 279 282 81 27 205 20 279 -16z
m1052 15 c81 -21 170 -113 195 -203 42 -153 35 -163 -119 -177 -60 -6 -160
-12 -220 -13 -62 -2 -121 -9 -134 -16 -21 -12 -22 -17 -16 -64 9 -70 34 -123
84 -179 51 -57 116 -81 200 -73 54 6 137 41 160 69 17 20 35 20 55 0 15 -14
15 -18 -1 -46 -38 -65 -147 -138 -245 -163 -61 -17 -167 -6 -227 22 -55 27
-120 100 -158 180 -30 63 -36 85 -40 170 -9 168 38 307 136 400 61 58 134 96
201 104 55 6 63 6 129 -11z m-7297 -14 c21 -9 57 -31 80 -49 64 -49 73 -53 65
-34 -4 11 -2 14 9 10 8 -3 13 -12 10 -19 -3 -9 1 -11 12 -8 15 5 14 4 -1 -6
-15 -10 -35 -1 -122 55 -58 37 -105 69 -105 71 0 3 3 3 8 1 4 -2 24 -11 44
-21z m5492 -131 c-1 -82 -3 -190 -4 -240 -1 -49 -1 -147 -1 -216 1 -143 10
-165 70 -178 42 -8 61 -33 45 -58 -7 -10 -20 -17 -30 -15 -11 1 -100 4 -199 5
l-180 2 0 24 c0 19 9 27 45 40 71 26 73 36 74 327 1 279 2 276 -65 294 -32 9
-39 15 -39 35 0 30 8 36 140 90 154 63 145 70 144 -110z m-5409 135 c3 -5 1
-10 -6 -10 -8 0 -8 -4 1 -15 7 -8 8 -15 2 -15 -5 0 -16 7 -23 16 -7 9 -22 20
-34 24 -16 7 -13 9 17 9 20 1 40 -3 43 -9z m1554 -5 c-5 -4 -98 -19 -194 -31
-22 -3 -69 -9 -105 -14 -73 -11 -146 -13 -138 -4 6 6 352 51 407 53 19 0 32
-1 30 -4z m-1514 -45 c3 -5 2 -10 -4 -10 -5 0 -13 5 -16 10 -3 6 -2 10 4 10 5
0 13 -4 16 -10z m491 -21 c3 -6 -5 -3 -20 6 -14 10 -26 19 -26 22 0 7 39 -17
46 -28z m38 -8 c-2 -3 -12 3 -22 13 -16 17 -16 18 5 5 12 -7 20 -15 17 -18z
m-440 -17 c7 -19 2 -18 -19 6 -16 17 -16 20 -3 15 9 -4 19 -13 22 -21z m1248
-61 c18 -48 22 -72 15 -81 -7 -9 -2 -21 18 -42 18 -19 25 -34 19 -39 -21 -20
-134 -72 -144 -66 -5 3 -19 8 -30 10 -17 3 -19 0 -14 -19 4 -19 -2 -26 -41
-46 -26 -13 -43 -26 -37 -28 6 -2 25 4 43 13 18 10 42 18 55 20 12 1 29 9 38
17 16 16 144 74 150 67 1 -2 26 -53 54 -112 48 -101 51 -111 38 -135 -16 -30
-47 -60 -89 -87 -54 -34 -197 -19 -268 28 -43 28 -109 126 -133 197 -25 72
-34 318 -12 326 11 4 255 39 302 43 6 1 23 -29 36 -66z m-745 37 c-16 -5 -64
-12 -108 -16 -43 -3 -76 -10 -74 -14 3 -5 -3 -6 -13 -3 -11 2 -54 -1 -98 -7
-103 -15 -164 -18 -169 -10 -2 4 1 7 8 8 7 0 89 10 182 21 235 28 236 28 270
29 l30 0 -28 -8z m-514 -57 c-7 -2 -21 -2 -30 0 -10 3 -4 5 12 5 17 0 24 -2
18 -5z m403 -61 c-18 -16 -18 -16 -6 6 6 13 14 21 18 18 3 -4 -2 -14 -12 -24z
m114 25 c0 -2 -10 -12 -22 -23 l-23 -19 19 23 c18 21 26 27 26 19z m-149 -24
c-18 -35 -90 -110 -105 -110 -12 0 -11 6 6 29 11 16 23 27 26 24 7 -8 42 24
42 38 0 6 -9 0 -20 -14 -11 -14 -20 -20 -20 -14 0 6 11 21 25 34 14 13 25 20
25 15 0 -5 5 -4 12 3 17 17 20 15 9 -5z m-154 -11 c-24 -26 -21 -39 3 -17 33
30 23 9 -20 -40 -22 -25 -40 -53 -40 -61 0 -8 -7 -14 -16 -14 -18 0 -13 10 35
62 13 15 22 30 19 33 -3 3 -27 -19 -53 -50 -26 -30 -50 -53 -53 -51 -4 5 127
156 136 156 3 0 -2 -8 -11 -18z m56 -44 c-53 -70 -76 -91 -81 -77 -2 5 -8 7
-13 3 -19 -11 -8 14 13 32 19 16 20 16 9 1 -8 -9 -12 -20 -9 -22 3 -3 31 24
62 60 32 36 60 65 63 65 2 0 -17 -28 -44 -62z m-301 11 c-12 -11 -19 -25 -16
-31 4 -6 3 -8 -3 -5 -13 8 -36 -18 -38 -44 -1 -14 3 -18 14 -14 9 4 6 -4 -8
-19 -14 -15 -34 -26 -45 -25 -12 0 -15 3 -8 6 6 2 12 11 12 19 0 8 4 14 9 14
5 0 12 8 15 17 7 18 -8 7 -62 -44 -12 -13 -26 -23 -30 -23 -10 0 163 170 173
170 5 0 -1 -9 -13 -21z m398 -4 c-7 -9 -15 -13 -18 -10 -3 2 1 11 8 20 7 9 15
13 18 10 3 -2 -1 -11 -8 -20z m110 21 c0 -2 -8 -10 -17 -17 -16 -13 -17 -12
-4 4 13 16 21 21 21 13z m-467 -21 c-3 -9 -8 -14 -10 -11 -3 3 -2 9 2 15 9 16
15 13 8 -4z m30 -59 c-55 -71 -86 -98 -64 -57 11 20 110 131 117 131 2 0 -22
-33 -53 -74z m-73 9 c-26 -28 -42 -33 -34 -10 4 8 12 15 19 15 7 0 16 7 19 16
4 9 9 14 13 10 4 -3 -4 -17 -17 -31z m150 32 c0 -1 -26 -27 -57 -57 -32 -30
-48 -44 -38 -31 31 37 95 97 95 88z m270 -3 c0 -3 -7 -12 -15 -20 -16 -17 -18
-14 -9 10 6 15 24 23 24 10z m-46 -22 c3 -5 -1 -9 -9 -9 -8 0 -12 4 -9 9 3 4
7 8 9 8 2 0 6 -4 9 -8z m-359 -42 c-3 -5 -11 -10 -16 -10 -6 0 -7 5 -4 10 3 6
11 10 16 10 6 0 7 -4 4 -10z m6960 -190 c3 -5 1 -10 -4 -10 -6 0 -11 5 -11 10
0 6 2 10 4 10 3 0 8 -4 11 -10z m-135 -380 c0 -5 -2 -10 -4 -10 -3 0 -8 5 -11
10 -3 6 -1 10 4 10 6 0 11 -4 11 -10z m-5091 -73 c-40 -30 -111 -78 -104 -69
17 19 89 71 99 72 5 0 7 -1 5 -3z m4950 -97 c61 -47 111 -88 111 -93 0 -10
-152 102 -210 154 -67 60 -26 35 99 -61z m-5091 -13 c-9 -6 -60 -45 -114 -86
-55 -41 -121 -91 -149 -112 -27 -21 -52 -36 -54 -33 -6 5 -18 -5 164 132 88
67 162 119 164 116 2 -2 -2 -10 -11 -17z m72 -48 c0 -11 -4 -17 -10 -14 -5 3
-10 13 -10 21 0 8 5 14 10 14 6 0 10 -9 10 -21z m2720 -5 c-8 -8 -23 -20 -34
-25 -13 -7 -9 -1 9 15 34 29 43 33 25 10z m2463 -65 c-17 -17 -37 -1 -22 17 8
10 15 12 23 4 7 -7 7 -13 -1 -21z m-2790 4 c-7 -2 -19 -2 -25 0 -7 3 -2 5 12
5 14 0 19 -2 13 -5z m44 1 c-3 -3 -12 -4 -19 -1 -8 3 -5 6 6 6 11 1 17 -2 13
-5z m1749 -80 c-34 -68 -66 -178 -66 -226 0 -29 6 -45 26 -63 15 -14 34 -25
42 -25 8 0 12 -3 9 -6 -11 -11 -67 18 -79 40 -11 20 -12 19 -20 -14 -4 -19
-11 -87 -14 -150 -15 -261 70 -557 213 -748 48 -64 96 -113 176 -183 37 -33
63 -59 57 -59 -6 0 -66 55 -133 123 -166 165 -240 293 -304 524 -26 92 -28
110 -28 298 0 226 15 320 67 440 39 89 58 119 70 107 5 -5 -1 -29 -16 -58z
m1189 -71 c83 -65 185 -146 228 -178 51 -38 74 -61 66 -66 -7 -4 -19 1 -28 12
-9 11 -110 92 -225 182 -115 89 -212 169 -214 177 -4 12 -2 13 9 4 8 -6 82
-65 164 -131z m115 87 c-27 -24 -31 -25 -24 -6 4 11 -11 13 -83 11 -69 -3 -77
-2 -38 4 28 4 77 9 109 9 l59 2 -23 -20z m36 -15 c-11 -8 -22 -12 -25 -9 -6 6
19 24 34 24 6 -1 1 -7 -9 -15z m-92 -14 c3 -5 -8 -11 -24 -13 -35 -5 -41 8 -7
15 12 2 23 5 24 6 1 0 4 -3 7 -8z m-5844 -62 c0 -14 -26 -10 -39 5 -9 11 -9
15 1 19 14 5 38 -10 38 -24z m5877 25 c-3 -3 -12 -4 -19 -1 -8 3 -5 6 6 6 11
1 17 -2 13 -5z m171 -3 c21 -13 -21 -21 -107 -21 -88 0 -87 10 1 20 91 10 92
10 106 1z m-4036 -53 c-6 -6 -7 0 -4 19 5 21 7 23 10 9 2 -10 0 -22 -6 -28z
m3657 5 c13 -53 24 -129 18 -123 -3 3 -13 39 -21 80 -18 86 -17 80 -11 80 2 0
9 -17 14 -37z m431 18 c0 -9 -168 -26 -176 -18 -3 3 25 8 63 12 37 4 73 8 78
10 19 7 35 5 35 -4z m-6166 -27 c-108 -75 -213 -157 -209 -164 3 -5 0 -12 -6
-16 -8 -4 -9 -3 -5 4 14 24 -8 10 -125 -74 -66 -47 -122 -84 -125 -81 -3 2 30
29 73 60 43 30 150 109 238 175 88 66 164 117 169 114 5 -3 0 -11 -10 -18z
m-109 -8 c11 -3 -20 -3 -68 -1 -49 1 -93 7 -98 12 -8 8 116 0 166 -11z m6315
9 c11 -13 9 -15 -16 -14 -16 1 -48 -1 -71 -5 -62 -11 -53 8 10 21 28 5 55 11
58 11 4 1 12 -5 19 -13z m-6443 -31 c-5 -5 -57 13 -57 20 0 3 14 0 31 -6 16
-6 28 -12 26 -14z m6286 9 c-7 -2 -19 -2 -25 0 -7 3 -2 5 12 5 14 0 19 -2 13
-5z m-6213 -23 c12 -8 12 -10 -5 -9 -11 0 -29 4 -40 9 -18 8 -18 9 5 9 14 0
32 -4 40 -9z m6390 3 c-76 -12 -150 -19 -143 -12 11 11 50 16 113 16 30 0 44
-2 30 -4z m-370 -58 c10 -23 22 -161 14 -152 -4 3 -10 36 -15 74 -5 37 -11 82
-14 98 -3 17 -2 23 1 15 3 -8 9 -24 14 -35z m-6141 19 l65 -6 -36 -13 c-20 -6
-49 -11 -64 -10 -16 1 -58 5 -94 8 -59 6 -62 5 -27 -5 20 -6 37 -15 37 -20 0
-5 10 -6 23 -3 12 3 34 2 47 -3 18 -7 -4 -9 -74 -7 -54 2 -101 6 -104 9 -3 3
4 6 16 6 15 0 20 5 16 15 -8 21 51 46 96 40 19 -2 64 -7 99 -11z m6564 9 c-7
-2 -21 -2 -30 0 -10 3 -4 5 12 5 17 0 24 -2 18 -5z m-5789 -24 c-19 -21 -19
-21 1 -18 19 4 20 -2 23 -92 l3 -97 -43 -36 c-48 -41 -128 -89 -136 -81 -3 3
0 5 6 5 14 0 12 22 -3 32 -5 4 2 11 16 17 34 13 79 67 79 96 0 12 7 28 15 35
24 20 10 23 -25 5 -55 -28 -55 -11 -1 30 53 38 53 38 30 51 -13 7 -33 14 -44
14 -13 1 -6 7 21 20 23 10 45 23 48 29 4 6 12 11 18 11 6 0 3 -9 -8 -21z
m5298 -31 c-11 -23 -11 -23 -11 -1 -1 12 -4 30 -7 40 -6 17 -6 17 11 1 15 -14
16 -21 7 -40z m115 -90 c5 -42 6 -75 1 -72 -9 6 -16 47 -22 139 -7 91 9 42 21
-67z m296 125 c-7 -2 -19 -2 -25 0 -7 3 -2 5 12 5 14 0 19 -2 13 -5z m110 0
c-13 -2 -35 -2 -50 0 -16 2 -5 4 22 4 28 0 40 -2 28 -4z m-6344 -40 c-15 -56
-20 -63 -13 -18 6 39 11 55 19 55 2 0 -1 -17 -6 -37z m3688 5 c-3 -8 -6 -5 -6
6 -1 11 2 17 5 13 3 -3 4 -12 1 -19z m2540 16 c-3 -3 -12 -4 -19 -1 -8 3 -5 6
6 6 11 1 17 -2 13 -5z m152 -4 c-15 -4 -69 -10 -120 -13 l-94 -5 80 13 c94 15
177 18 134 5z m-1828 -31 c-24 -20 -41 -24 -41 -11 0 10 53 42 60 35 3 -2 -6
-13 -19 -24z m-4976 -10 c24 -1 22 -3 -15 -10 -50 -10 -104 -3 -94 13 4 6 22
8 43 4 20 -3 50 -6 66 -7z m885 1 c-20 -13 -33 -13 -25 0 3 6 14 10 23 10 15
0 15 -2 2 -10z m5980 -6 c0 -2 -9 -4 -21 -4 -11 0 -18 4 -14 10 5 8 35 3 35
-6z m-1914 -15 c34 15 43 13 20 -4 -26 -20 -51 -19 -67 3 -13 15 -12 16 4 3
14 -11 23 -12 43 -2z m-4928 -6 c-10 -2 -26 -2 -35 0 -10 3 -2 5 17 5 19 0 27
-2 18 -5z m275 -93 c-14 -52 -29 -96 -34 -98 -5 -2 -9 -10 -9 -18 0 -8 -4 -14
-10 -14 -5 0 -10 1 -10 3 1 1 7 27 15 57 9 36 14 46 15 30 1 -16 7 -4 15 30
11 51 35 113 41 108 1 -2 -9 -46 -23 -98z m6095 -5 l0 -30 -8 30 c-4 17 -8 48
-8 70 l0 40 9 -40 c4 -22 8 -53 7 -70z m422 89 c-41 -8 -91 -13 -110 -11 -26
2 -15 5 40 13 109 16 159 14 70 -2z m-6737 -1 c-7 -2 -19 -2 -25 0 -7 3 -2 5
12 5 14 0 19 -2 13 -5z m-196 -9 c-3 -3 -12 -4 -19 -1 -8 3 -5 6 6 6 11 1 17
-2 13 -5z m520 -16 c-3 -8 -6 -5 -6 6 -1 11 2 17 5 13 3 -3 4 -12 1 -19z
m6547 14 c2 -4 -32 -9 -77 -9 -55 -1 -74 1 -57 7 33 11 127 12 134 2z m-7089
-12 c27 -7 27 -8 5 -8 -14 0 -36 4 -50 8 -20 6 -21 8 -5 8 11 0 34 -4 50 -8z
m108 3 c-13 -2 -35 -2 -50 0 -16 2 -5 4 22 4 28 0 40 -2 28 -4z m6477 -71 c7
-34 10 -65 8 -68 -5 -4 -15 34 -34 126 -4 16 -2 21 4 15 5 -5 15 -38 22 -73z
m-6093 56 c-2 -7 0 -22 5 -33 9 -20 9 -20 -6 -1 -18 23 -21 46 -5 46 6 0 9 -6
6 -12z m3756 -18 c-3 -11 -10 -20 -15 -20 -6 0 -7 7 -4 16 3 9 6 20 6 25 0 6
4 8 9 5 5 -3 7 -15 4 -26z m2443 -125 c9 -81 -2 -67 -15 20 -21 133 -22 143
-6 90 8 -27 17 -77 21 -110z m-6279 108 c-3 -10 -5 -4 -5 12 0 17 2 24 5 18 2
-7 2 -21 0 -30z m6418 -3 c16 -16 24 -30 19 -30 -5 0 -18 11 -28 25 -18 25
-44 36 -30 13 4 -7 3 -8 -5 -4 -11 7 -6 26 8 26 4 0 20 -13 36 -30z m-6715 4
c0 -2 -13 -4 -30 -4 -16 0 -30 4 -30 8 0 5 14 7 30 4 17 -2 30 -6 30 -8z
m6507 -6 c-3 -8 -6 -5 -6 6 -1 11 2 17 5 13 3 -3 4 -12 1 -19z m-63 -33 c5
-29 4 -36 -3 -25 -6 8 -11 28 -11 44 0 39 6 31 14 -19z m-6661 18 c-7 -2 -21
-2 -30 0 -10 3 -4 5 12 5 17 0 24 -2 18 -5z m77 -3 c0 -5 -5 -10 -11 -10 -5 0
-7 5 -4 10 3 6 8 10 11 10 2 0 4 -4 4 -10z m386 -32 c-4 -24 -9 -54 -12 -68
-4 -20 -3 -22 5 -10 10 13 11 13 10 0 0 -8 -4 -24 -8 -35 -14 -36 -20 34 -8
97 12 67 23 79 13 16z m21 -5 c-3 -10 -5 -4 -5 12 0 17 2 24 5 18 2 -7 2 -21
0 -30z m-530 21 c-3 -3 -12 -4 -19 -1 -8 3 -5 6 6 6 11 1 17 -2 13 -5z m58 -4
c-15 -7 -8 -9 30 -11 l50 -2 -45 -6 c-62 -8 -187 -1 -170 9 8 5 36 6 64 3 36
-5 47 -3 42 5 -5 8 2 12 21 11 25 0 26 -1 8 -9z m6734 -50 l-1 -35 -8 30 c-4
17 -8 39 -9 50 -1 16 1 17 9 5 5 -8 9 -31 9 -50z m150 -91 c16 -68 28 -125 26
-127 -4 -4 -25 66 -32 102 -2 11 -10 47 -19 80 -27 110 -26 103 -15 85 6 -10
24 -72 40 -140z m-6751 124 c-10 -2 -26 -2 -35 0 -10 3 -2 5 17 5 19 0 27 -2
18 -5z m269 -25 c-3 -8 -6 -5 -6 6 -1 11 2 17 5 13 3 -3 4 -12 1 -19z m-207
-2 c0 -3 -15 -14 -32 -26 l-33 -22 28 26 c27 25 37 31 37 22z m156 -42 c-4
-14 -9 -24 -12 -21 -3 2 -2 17 2 31 3 15 9 25 11 22 3 -3 2 -17 -1 -32z m29
-45 c-9 -35 -19 -66 -22 -69 -7 -7 5 66 18 108 19 57 21 27 4 -39z m6462 29
c-3 -8 -6 -5 -6 6 -1 11 2 17 5 13 3 -3 4 -12 1 -19z m-6425 -40 c-2 -10 -9
-18 -14 -18 -6 0 -8 10 -4 23 3 12 6 29 7 37 0 10 3 8 8 -5 4 -11 6 -28 3 -37z
m-128 -48 c-16 -78 -38 -134 -28 -70 8 49 36 151 40 147 2 -2 -3 -36 -12 -77z
m6533 58 c-3 -8 -6 -5 -6 6 -1 11 2 17 5 13 3 -3 4 -12 1 -19z m-6490 -20 c-3
-7 -5 -2 -5 12 0 14 2 19 5 13 2 -7 2 -19 0 -25z m-124 -15 c-3 -21 -9 -40
-13 -43 -5 -3 -20 -41 -35 -85 -14 -44 -31 -84 -36 -90 -8 -8 46 159 76 238
11 28 14 20 8 -20z m38 6 c-5 -13 -10 -19 -10 -12 -1 15 10 45 15 40 3 -2 0
-15 -5 -28z m6618 -23 c7 -26 7 -36 0 -29 -5 5 -12 27 -14 49 -6 44 -1 37 14
-20z m-32 12 c-3 -8 -6 -5 -6 6 -1 11 2 17 5 13 3 -3 4 -12 1 -19z m-2649 -2
c-7 -8 -15 -12 -17 -11 -5 6 10 25 20 25 5 0 4 -6 -3 -14z m-3861 -18 c-3 -8
-6 -5 -6 6 -1 11 2 17 5 13 3 -3 4 -12 1 -19z m3703 -1 c0 -2 -10 -12 -22 -23
l-23 -19 19 23 c18 21 26 27 26 19z m-3803 -29 c-3 -8 -6 -5 -6 6 -1 11 2 17
5 13 3 -3 4 -12 1 -19z m943 12 c0 -6 -12 -23 -27 -37 -22 -20 -24 -25 -8 -19
17 6 16 4 -5 -19 -21 -23 -22 -25 -5 -19 16 6 14 1 -9 -24 -16 -17 -34 -29
-39 -25 -6 3 -7 1 -3 -5 9 -15 -104 -94 -189 -132 -82 -37 -99 -32 -23 6 29
15 72 40 95 55 23 16 45 29 50 29 4 0 19 10 33 21 l25 20 -32 -15 c-18 -9 -34
-16 -38 -16 -11 0 -4 24 12 42 9 10 11 18 5 18 -6 0 -13 -4 -16 -9 -3 -5 -22
-18 -42 -30 -73 -43 -19 2 77 64 91 59 123 86 83 71 -9 -3 -12 -2 -9 5 4 5 15
7 26 4 12 -4 21 -1 25 9 7 18 14 21 14 6z m-854 -26 c-4 -9 -9 -15 -11 -12 -3
3 -3 13 1 22 4 9 9 15 11 12 3 -3 3 -13 -1 -22z m-96 -15 c0 -3 -7 -6 -15 -6
-17 0 -17 0 -9 22 5 13 8 14 15 3 5 -7 9 -16 9 -19z m-9 -33 c17 10 9 -5 -17
-33 l-26 -28 8 30 c9 39 17 52 22 37 2 -7 8 -10 13 -6z m3871 -1 c-12 -22
-102 -85 -121 -85 -9 0 -2 8 16 16 18 9 49 31 70 50 43 38 47 40 35 19z m1263
-80 c0 -7 6 -20 14 -29 27 -33 -8 -15 -38 19 -40 46 -43 76 -3 45 15 -12 27
-28 27 -35z m-133 23 c-7 -7 -12 -8 -12 -2 0 14 12 26 19 19 2 -3 -1 -11 -7
-17z m-1232 8 c0 -2 -7 -7 -16 -10 -8 -3 -12 -2 -9 4 6 10 25 14 25 6z m-2876
-51 c-9 -14 -37 -38 -61 -52 -32 -19 -41 -28 -31 -34 10 -7 10 -9 1 -9 -7 0
-13 -5 -13 -11 0 -6 7 -9 15 -5 8 3 15 3 15 0 0 -11 -146 -74 -163 -70 -9 2
-15 1 -12 -4 8 -13 -23 -20 -47 -11 -20 8 -21 10 -6 16 10 4 16 10 13 14 -2 5
24 21 58 36 34 16 64 31 67 35 3 3 23 17 45 30 22 13 60 39 84 57 53 40 56 40
35 8z m-139 -5 c-10 -11 -23 -20 -29 -20 -6 0 0 9 14 20 32 25 38 25 15 0z
m266 -37 c-6 -11 -10 -12 -15 -4 -4 6 -2 11 4 11 6 0 8 11 5 28 -5 26 -5 26 5
4 6 -14 6 -30 1 -39z m4143 3 c13 5 46 -25 43 -40 -1 -5 7 -10 19 -11 26 -2
118 -54 110 -62 -3 -4 -14 1 -23 9 -25 21 -87 52 -78 39 3 -6 20 -18 37 -27
16 -8 27 -18 24 -21 -6 -6 -99 50 -133 80 -13 11 -26 18 -29 15 -7 -7 114 -94
208 -149 83 -48 99 -70 27 -34 -101 49 -119 60 -119 67 0 5 -4 8 -10 8 -15 0
-120 102 -115 111 3 4 1 10 -5 14 -5 3 -10 11 -10 16 0 6 10 3 21 -5 12 -8 27
-12 33 -10z m-1776 -23 c-10 -2 -28 -2 -40 0 -13 2 -5 4 17 4 22 1 32 -1 23
-4z m1959 -189 c48 -25 68 -41 60 -46 -9 -5 -7 -8 4 -8 9 0 22 -7 29 -15 11
-14 10 -14 -14 -5 -34 13 -46 13 -26 0 39 -25 -18 -6 -95 31 -83 40 -108 58
-63 43 21 -6 22 -5 8 11 -8 10 -14 20 -12 22 1 1 -1 3 -4 2 -4 0 -14 10 -23
24 -9 13 -21 22 -27 20 -6 -2 -19 6 -29 17 -18 20 -18 21 0 14 14 -6 16 -4 10
6 -5 8 18 -6 51 -31 32 -26 92 -64 131 -85z m-4561 77 c-28 -31 -111 -71 -192
-91 -42 -11 -79 -18 -82 -16 -6 7 47 31 133 60 44 15 96 35 115 46 44 24 47
24 26 1z m4559 -1 c3 -6 -1 -7 -9 -4 -18 7 -21 14 -7 14 6 0 13 -4 16 -10z
m-4398 -32 c-3 -8 -6 -5 -6 6 -1 11 2 17 5 13 3 -3 4 -12 1 -19z m4060 -10
c-3 -8 -6 -5 -6 6 -1 11 2 17 5 13 3 -3 4 -12 1 -19z m-4281 -25 c-4 -4 -30
-17 -59 -30 -59 -25 -51 -30 14 -8 42 14 43 14 20 -3 -48 -34 -271 -84 -271
-61 0 16 45 32 97 33 29 0 48 3 43 4 -21 7 -9 20 25 26 20 4 54 15 78 26 44
20 65 25 53 13z m4663 -114 c45 -16 58 -25 49 -31 -9 -6 -3 -8 15 -3 17 3 26
2 23 -4 -4 -5 2 -12 11 -15 10 -3 -2 -3 -27 0 -56 6 -153 53 -205 99 l-40 36
56 -29 c31 -17 85 -40 118 -53z m-179 -104 c6 4 10 13 10 22 0 44 15 -7 26
-94 16 -111 12 -134 -6 -39 -7 36 -18 71 -26 77 -11 9 -14 8 -14 -4 0 -8 4
-17 9 -19 4 -1 10 -29 13 -61 3 -32 1 -52 -3 -45 -5 7 -9 21 -9 30 0 9 -5 20
-10 23 -7 4 -8 -3 -4 -22 4 -15 3 -25 -1 -20 -13 11 -41 194 -37 235 5 36 5
35 24 -26 10 -35 23 -60 28 -57z m161 62 c30 -13 84 -32 122 -42 75 -20 109
-45 61 -45 -43 0 -121 26 -104 33 8 4 2 5 -15 2 -16 -2 -43 2 -60 10 -30 15
-17 14 36 -1 13 -4 19 -2 15 4 -3 5 -20 13 -38 16 -33 6 -103 46 -82 46 6 0
36 -11 65 -23z m-46 -17 c3 -5 2 -10 -4 -10 -5 0 -13 5 -16 10 -3 6 -2 10 4
10 5 0 13 -4 16 -10z m-4528 -62 c-3 -8 -6 -5 -6 6 -1 11 2 17 5 13 3 -3 4
-12 1 -19z m4353 -92 c0 -12 -5 -7 -19 24 -11 24 -11 24 3 6 9 -11 16 -24 16
-30z m163 -48 c8 -24 22 -60 32 -81 9 -22 12 -36 7 -33 -10 6 -62 129 -62 146
0 21 9 9 23 -32z m307 -95 c0 -7 -39 17 -46 28 -3 6 5 3 20 -6 14 -10 26 -19
26 -22z"/>
<path d="M5950 8669 c57 -45 82 -58 40 -20 -25 22 -49 40 -55 40 -5 1 1 -8 15
-20z"/>
<path d="M6010 8597 c0 -2 15 -16 33 -33 l32 -29 -29 33 c-28 30 -36 37 -36
29z"/>
<path d="M6100 8532 c6 -13 14 -21 18 -18 3 4 -2 14 -12 24 -18 16 -18 16 -6
-6z"/>
<path d="M5017 8443 c-4 -3 -7 -13 -7 -22 0 -13 2 -13 13 1 6 9 21 18 32 21
16 4 15 5 -6 6 -14 0 -29 -2 -32 -6z"/>
<path d="M4457 8333 c-4 -3 -7 -11 -7 -17 0 -6 5 -5 12 2 6 6 9 14 7 17 -3 3
-9 2 -12 -2z"/>
<path d="M3460 7964 c0 -14 3 -14 15 -4 8 7 15 14 15 16 0 2 -7 4 -15 4 -8 0
-15 -7 -15 -16z"/>
<path d="M3376 7923 c-6 -14 -5 -15 5 -6 7 7 10 15 7 18 -3 3 -9 -2 -12 -12z"/>
<path d="M3520 7920 c-9 -6 -10 -10 -3 -10 6 0 15 5 18 10 8 12 4 12 -15 0z"/>
<path d="M3481 7864 c0 -11 3 -14 6 -6 3 7 2 16 -1 19 -3 4 -6 -2 -5 -13z"/>
<path d="M3468 7813 c-26 -4 -36 -21 -22 -35 6 -7 61 19 69 33 6 9 2 9 -47 2z"/>
<path d="M3522 7789 c-7 -11 -11 -23 -9 -25 7 -7 29 24 25 36 -2 6 -9 1 -16
-11z"/>
<path d="M3460 7649 c0 -5 5 -7 10 -4 6 3 10 8 10 11 0 2 -4 4 -10 4 -5 0 -10
-5 -10 -11z"/>
<path d="M3875 7640 c-3 -5 -1 -10 4 -10 6 0 11 5 11 10 0 6 -2 10 -4 10 -3 0
-8 -4 -11 -10z"/>
<path d="M3430 7620 c0 -5 5 -10 10 -10 6 0 10 5 10 10 0 6 -4 10 -10 10 -5 0
-10 -4 -10 -10z"/>
<path d="M3490 7600 c0 -5 -6 -10 -14 -10 -8 0 -17 -7 -20 -16 -8 -22 -8 -26
4 -19 7 4 8 -3 4 -22 -5 -21 -4 -25 5 -17 7 6 13 21 14 32 0 12 7 24 14 26 15
6 18 36 3 36 -5 0 -10 -4 -10 -10z"/>
<path d="M3731 7564 c-28 -35 -27 -48 6 -74 35 -28 73 -23 93 13 36 64 -53
120 -99 61z m77 4 c20 -20 15 -66 -9 -78 -16 -9 -26 -8 -45 5 -30 19 -31 49
-2 69 27 19 40 20 56 4z"/>
<path d="M3420 7561 c0 -6 5 -13 10 -16 6 -3 10 1 10 9 0 9 -4 16 -10 16 -5 0
-10 -4 -10 -9z"/>
<path d="M3622 7558 c-15 -15 -15 -55 -1 -64 6 -3 10 1 9 12 -4 38 0 45 20 39
25 -8 26 1 2 14 -13 7 -23 6 -30 -1z"/>
<path d="M3860 7530 c0 -5 5 -10 10 -10 6 0 10 5 10 10 0 6 -4 10 -10 10 -5 0
-10 -4 -10 -10z"/>
<path d="M3335 7520 c-3 -5 1 -10 10 -10 9 0 13 5 10 10 -3 6 -8 10 -10 10 -2
0 -7 -4 -10 -10z"/>
<path d="M3374 7499 c-3 -5 -4 -9 -2 -10 30 -7 48 -7 48 0 0 12 -39 21 -46 10z"/>
<path d="M3460 7479 c0 -11 5 -17 10 -14 6 3 10 13 10 21 0 8 -4 14 -10 14 -5
0 -10 -9 -10 -21z"/>
<path d="M3940 7485 c0 -8 5 -15 10 -15 6 0 10 7 10 15 0 8 -4 15 -10 15 -5 0
-10 -7 -10 -15z"/>
<path d="M3432 7443 c-10 -10 -10 -13 3 -13 8 0 15 -7 15 -15 0 -8 5 -15 10
-15 14 0 12 29 -3 44 -10 11 -15 10 -25 -1z"/>
<path d="M5280 8470 c0 -5 7 -7 15 -4 8 4 15 8 15 10 0 2 -7 4 -15 4 -8 0 -15
-4 -15 -10z"/>
<path d="M5659 8365 c24 -14 46 -23 48 -21 5 5 -71 46 -84 46 -4 0 12 -12 36
-25z"/>
<path d="M5840 8296 c0 -2 7 -7 16 -10 8 -3 12 -2 9 4 -6 10 -25 14 -25 6z"/>
<path d="M5620 8286 c0 -3 9 -10 20 -16 11 -6 20 -8 20 -6 0 3 -9 10 -20 16
-11 6 -20 8 -20 6z"/>
<path d="M2108 8453 c7 -3 16 -2 19 1 4 3 -2 6 -13 5 -11 0 -14 -3 -6 -6z"/>
<path d="M6745 8040 c3 -5 8 -10 11 -10 2 0 4 5 4 10 0 6 -5 10 -11 10 -5 0
-7 -4 -4 -10z"/>
<path d="M6734 7999 c-3 -6 -1 -16 6 -22 10 -9 12 -8 6 7 -5 14 -2 17 9 12 9
-3 13 -2 10 4 -8 13 -22 13 -31 -1z"/>
<path d="M6695 7980 c4 -6 11 -8 16 -5 14 9 11 15 -7 15 -8 0 -12 -5 -9 -10z"/>
<path d="M6670 7971 c0 -10 19 -25 25 -20 1 2 -3 10 -11 17 -8 7 -14 8 -14 3z"/>
<path d="M6750 7838 c0 -15 18 -17 36 -3 18 14 17 14 -8 13 -16 -1 -28 -6 -28
-10z"/>
<path d="M6868 7498 c8 -8 17 -8 34 0 22 10 21 11 -11 11 -27 1 -32 -2 -23
-11z"/>
<path d="M4351 7814 c0 -11 3 -14 6 -6 3 7 2 16 -1 19 -3 4 -6 -2 -5 -13z"/>
<path d="M4356 7305 c-3 -8 -1 -25 4 -37 8 -20 9 -18 9 15 1 39 -3 47 -13 22z"/>
<path d="M4582 7164 c10 -10 20 -16 22 -13 3 3 -5 11 -17 18 -21 13 -21 12 -5
-5z"/>
<path d="M4420 7135 c1 -27 70 -85 100 -85 8 1 1 7 -16 14 -17 8 -43 29 -57
47 -15 19 -27 30 -27 24z"/>
<path d="M4600 7047 c0 -11 101 -155 118 -169 9 -7 -11 25 -43 72 -65 94 -75
107 -75 97z"/>
<path d="M4805 6920 c17 -11 35 -20 40 -20 6 0 -3 9 -20 20 -16 11 -34 20 -40
20 -5 0 4 -9 20 -20z"/>
<path d="M4825 6769 c6 -9 94 -43 99 -38 2 2 -20 13 -50 25 -29 12 -51 18 -49
13z"/>
<path d="M4534 7395 c13 -36 48 -81 82 -103 48 -31 55 -27 10 6 -21 15 -51 48
-68 73 -17 24 -28 35 -24 24z"/>
<path d="M6351 7379 c-6 -18 -9 -34 -7 -36 2 -2 9 10 15 28 6 18 9 34 7 36 -2
2 -9 -10 -15 -28z"/>
<path d="M6257 7364 c-10 -13 -14 -24 -10 -24 9 0 36 40 31 45 -2 2 -11 -8
-21 -21z"/>
<path d="M7230 7616 c0 -8 5 -18 10 -21 6 -3 10 1 10 9 0 8 -4 18 -10 21 -5 3
-10 -1 -10 -9z"/>
<path d="M7257 7561 c-3 -13 0 -18 7 -15 7 3 13 11 13 19 0 22 -14 18 -20 -4z"/>
<path d="M7220 7525 c0 -9 9 -15 25 -15 14 0 25 5 25 11 0 6 -9 8 -21 4 -15
-5 -19 -4 -15 4 4 6 2 11 -3 11 -6 0 -11 -7 -11 -15z"/>
<path d="M7192 7506 c4 -5 3 -15 -3 -23 -9 -10 -8 -13 4 -13 24 0 29 16 9 31
-9 7 -14 9 -10 5z"/>
<path d="M7160 7435 c-7 -9 -8 -15 -2 -15 5 0 12 7 16 15 3 8 4 15 2 15 -2 0
-9 -7 -16 -15z"/>
<path d="M7020 7360 c20 -13 33 -13 25 0 -3 6 -14 10 -23 10 -15 0 -15 -2 -2
-10z"/>
<path d="M7150 7231 c0 -11 5 -23 10 -26 12 -8 13 -56 1 -87 -7 -20 -5 -25 16
-35 22 -11 24 -10 18 5 -9 24 -9 24 0 55 5 20 2 40 -10 68 -19 42 -35 51 -35
20z"/>
<path d="M7249 7122 c-14 -6 -14 -9 2 -26 19 -19 19 -19 19 7 0 15 -1 27 -2
26 -2 0 -10 -3 -19 -7z"/>
<path d="M7220 7080 c0 -13 5 -18 15 -14 12 5 13 10 4 20 -15 19 -19 18 -19
-6z"/>
<path d="M7545 7070 c3 -5 8 -10 11 -10 2 0 4 5 4 10 0 6 -5 10 -11 10 -5 0
-7 -4 -4 -10z"/>
<path d="M7170 7039 c0 -9 9 -27 20 -40 15 -19 19 -20 20 -8 0 9 -9 27 -20 40
-15 19 -19 20 -20 8z"/>
<path d="M7525 7021 c-3 -5 -1 -12 5 -16 5 -3 10 1 10 9 0 18 -6 21 -15 7z"/>
<path d="M6720 6982 c0 -15 4 -20 16 -15 9 3 12 9 7 12 -4 3 -11 10 -15 15 -5
5 -8 0 -8 -12z"/>
<path d="M7470 6986 c0 -9 8 -12 25 -8 14 2 25 8 25 13 0 5 -11 9 -25 9 -14 0
-25 -6 -25 -14z"/>
<path d="M7167 6947 c-3 -9 1 -18 10 -21 22 -9 25 -3 10 19 -12 15 -15 16 -20
2z"/>
<path d="M7370 6795 c0 -8 4 -15 10 -15 5 0 7 7 4 15 -4 8 -8 15 -10 15 -2 0
-4 -7 -4 -15z"/>
<path d="M7330 6660 c0 -5 5 -10 11 -10 5 0 7 5 4 10 -3 6 -8 10 -11 10 -2 0
-4 -4 -4 -10z"/>
<path d="M7325 6631 c-3 -5 -1 -12 4 -15 5 -3 11 1 15 9 6 16 -9 21 -19 6z"/>
<path d="M7395 6590 c3 -5 8 -10 11 -10 2 0 4 5 4 10 0 6 -5 10 -11 10 -5 0
-7 -4 -4 -10z"/>
<path d="M7450 6586 c0 -2 7 -9 15 -16 13 -11 14 -10 9 4 -5 14 -24 23 -24 12z"/>
<path d="M7395 6540 c3 -5 8 -10 11 -10 2 0 4 5 4 10 0 6 -5 10 -11 10 -5 0
-7 -4 -4 -10z"/>
<path d="M3145 7390 c3 -5 8 -10 11 -10 2 0 4 5 4 10 0 6 -5 10 -11 10 -5 0
-7 -4 -4 -10z"/>
<path d="M3140 7319 c0 -5 5 -7 10 -4 6 3 10 8 10 11 0 2 -4 4 -10 4 -5 0 -10
-5 -10 -11z"/>
<path d="M3100 7288 c0 -19 48 -60 61 -52 5 3 9 13 9 22 0 14 -2 15 -10 2 -7
-12 -13 -9 -34 15 -19 22 -26 26 -26 13z"/>
<path d="M3120 7170 c0 -5 4 -10 9 -10 5 0 15 -16 21 -35 14 -41 34 -59 24
-22 -4 19 0 30 15 44 24 20 27 33 7 33 -8 0 -17 -8 -21 -17 -6 -17 -7 -17 -19
0 -14 19 -36 23 -36 7z"/>
<path d="M3235 7160 c3 -5 8 -10 11 -10 2 0 4 5 4 10 0 6 -5 10 -11 10 -5 0
-7 -4 -4 -10z"/>
<path d="M3263 7146 c0 -18 3 -24 9 -18 7 7 7 16 0 28 -8 14 -9 13 -9 -10z"/>
<path d="M3140 7024 c0 -8 41 -44 50 -44 6 0 10 7 10 15 0 8 -5 15 -11 15 -5
0 -8 4 -5 9 3 5 -6 9 -19 9 -14 0 -25 -2 -25 -4z"/>
<path d="M2806 6976 c7 -19 38 -22 32 -3 -3 6 -12 13 -21 15 -12 2 -15 -1 -11
-12z"/>
<path d="M2851 6973 c-1 -12 5 -24 12 -27 6 -3 1 -3 -12 0 -17 4 -22 2 -19 -7
3 -8 13 -13 22 -11 14 3 16 -1 11 -17 -4 -15 -2 -21 8 -21 9 0 17 -6 20 -12 7
-20 49 29 44 50 -4 16 -5 16 -6 0 -1 -22 -21 -24 -21 -3 0 9 -6 12 -16 8 -13
-5 -15 -2 -9 15 4 16 2 22 -8 22 -9 0 -18 6 -20 13 -3 6 -6 2 -6 -10z"/>
<path d="M2950 6954 c0 -17 18 -36 30 -32 7 2 4 10 -9 22 -12 11 -21 15 -21
10z"/>
<path d="M2810 6924 c0 -8 5 -12 10 -9 6 4 8 11 5 16 -9 14 -15 11 -15 -7z"/>
<path d="M3045 6920 c3 -5 8 -10 11 -10 2 0 4 5 4 10 0 6 -5 10 -11 10 -5 0
-7 -4 -4 -10z"/>
<path d="M3038 6893 c7 -3 16 -2 19 1 4 3 -2 6 -13 5 -11 0 -14 -3 -6 -6z"/>
<path d="M3110 6845 c-7 -9 -10 -18 -7 -21 10 -11 37 5 37 21 0 19 -14 19 -30
0z"/>
<path d="M2161 7144 c0 -11 3 -14 6 -6 3 7 2 16 -1 19 -3 4 -6 -2 -5 -13z"/>
<path d="M6250 6770 c0 -5 5 -10 10 -10 6 0 10 5 10 10 0 6 -4 10 -10 10 -5 0
-10 -4 -10 -10z"/>
<path d="M6010 6640 c0 -5 5 -10 10 -10 6 0 10 5 10 10 0 6 -4 10 -10 10 -5 0
-10 -4 -10 -10z"/>
<path d="M4405 6780 c3 -5 10 -10 16 -10 5 0 9 5 9 10 0 6 -7 10 -16 10 -8 0
-12 -4 -9 -10z"/>
<path d="M4350 6734 c0 -8 5 -12 10 -9 6 3 10 10 10 16 0 5 -4 9 -10 9 -5 0
-10 -7 -10 -16z"/>
<path d="M4255 6550 c-3 -5 -1 -10 4 -10 6 0 11 5 11 10 0 6 -2 10 -4 10 -3 0
-8 -4 -11 -10z"/>
<path d="M4183 6428 c-25 -39 -31 -58 -21 -64 14 -9 29 9 34 45 5 33 1 39 -13
19z"/>
<path d="M5977 7119 c4 -13 9 -17 15 -11 11 11 3 32 -12 32 -4 0 -6 -9 -3 -21z"/>
<path d="M6115 7039 c-11 -11 -36 -33 -55 -50 -19 -17 -26 -26 -15 -21 29 15
101 79 95 85 -3 3 -14 -3 -25 -14z"/>
<path d="M5900 7029 c0 -5 5 -7 10 -4 6 3 10 8 10 11 0 2 -4 4 -10 4 -5 0 -10
-5 -10 -11z"/>
<path d="M5925 6850 c-8 -13 5 -13 25 0 13 8 13 10 -2 10 -9 0 -20 -4 -23 -10z"/>
<path d="M1628 7183 c6 -2 18 -2 25 0 6 3 1 5 -13 5 -14 0 -19 -2 -12 -5z"/>
<path d="M7175 6560 c3 -5 8 -10 11 -10 2 0 4 5 4 10 0 6 -5 10 -11 10 -5 0
-7 -4 -4 -10z"/>
<path d="M6420 6416 c0 -9 5 -16 10 -16 6 0 10 4 10 9 0 6 -4 13 -10 16 -5 3
-10 -1 -10 -9z"/>
<path d="M3510 6349 c0 -5 5 -7 10 -4 6 3 10 8 10 11 0 2 -4 4 -10 4 -5 0 -10
-5 -10 -11z"/>
<path d="M3680 6350 c0 -5 5 -10 11 -10 5 0 7 5 4 10 -3 6 -8 10 -11 10 -2 0
-4 -4 -4 -10z"/>
<path d="M3718 6233 c7 -3 16 -2 19 1 4 3 -2 6 -13 5 -11 0 -14 -3 -6 -6z"/>
<path d="M4247 5590 c-134 -55 -174 -96 -178 -181 -6 -117 102 -167 207 -96
l49 32 3 132 c1 72 -1 134 -5 136 -5 2 -39 -8 -76 -23z"/>
<path d="M6715 5586 c-140 -61 -175 -95 -175 -171 0 -83 43 -135 113 -135 43
0 131 41 141 65 3 9 6 73 6 141 0 141 2 139 -85 100z"/>
<path d="M2790 5911 c0 -6 4 -13 10 -16 6 -3 7 1 4 9 -7 18 -14 21 -14 7z"/>
<path d="M2770 5880 c0 -6 7 -10 15 -10 8 0 15 2 15 4 0 2 -7 6 -15 10 -8 3
-15 1 -15 -4z"/>
<path d="M8780 4953 c0 -4 14 -26 30 -47 21 -27 30 -34 32 -23 0 9 1 22 2 27
1 6 -14 20 -31 31 -18 12 -33 17 -33 12z"/>
<path d="M8945 4859 c-4 -5 -5 -9 -3 -10 15 -3 68 -6 68 -4 0 9 -60 22 -65 14z"/>
<path d="M1349 4526 c14 -14 29 -26 34 -26 13 0 -12 29 -37 42 -19 10 -18 8 3
-16z"/>
<path d="M4718 4470 c-49 -26 -64 -50 -94 -145 -22 -71 -25 -92 -20 -185 6
-121 17 -172 52 -245 28 -60 78 -103 133 -116 29 -7 45 -4 87 16 86 42 115
121 115 315 0 126 -13 197 -47 268 -48 98 -143 137 -226 92z"/>
<path d="M8105 4466 c-56 -25 -115 -112 -115 -169 0 -32 3 -35 33 -39 17 -2
85 -1 150 2 135 6 141 9 133 82 -8 80 -51 124 -128 133 -26 3 -55 0 -73 -9z"/>
<path d="M2821 2814 c-25 -25 -22 -31 8 -14 19 9 37 41 23 39 -4 -1 -18 -12
-31 -25z"/>
<path d="M2730 2524 c-50 -36 -50 -39 -3 -15 23 11 44 25 48 31 10 16 -8 10
-45 -16z"/>
<path d="M2694 2474 c-18 -14 -18 -15 4 -4 12 6 22 13 22 15 0 8 -5 6 -26 -11z"/>
<path d="M6970 2471 c0 -5 7 -12 16 -15 14 -5 15 -4 4 9 -14 17 -20 19 -20 6z"/>
<path d="M2628 2333 c7 -3 16 -2 19 1 4 3 -2 6 -13 5 -11 0 -14 -3 -6 -6z"/>
<path d="M7042 2374 c10 -10 20 -16 22 -13 3 3 -5 11 -17 18 -21 13 -21 12 -5
-5z"/>
<path d="M7238 2143 c7 -3 16 -2 19 1 4 3 -2 6 -13 5 -11 0 -14 -3 -6 -6z"/>
<path d="M7091 1964 c0 -11 3 -14 6 -6 3 7 2 16 -1 19 -3 4 -6 -2 -5 -13z"/>
<path d="M2120 5350 c0 -5 5 -10 11 -10 5 0 7 5 4 10 -3 6 -8 10 -11 10 -2 0
-4 -4 -4 -10z"/>
<path d="M8802 5353 c-6 -2 -10 -8 -8 -11 6 -11 206 -2 206 9 0 9 -175 12
-198 2z"/>
<path d="M1455 5300 c-13 -6 20 -9 93 -9 68 -1 112 3 112 9 0 12 -176 12 -205
0z"/>
<path d="M8515 5069 c-4 -6 -5 -12 -2 -15 2 -3 7 2 10 11 7 17 1 20 -8 4z"/>
<path d="M8430 4009 c0 -5 5 -7 10 -4 6 3 10 8 10 11 0 2 -4 4 -10 4 -5 0 -10
-5 -10 -11z"/>
<path d="M8173 3965 c0 -8 4 -15 9 -15 4 0 8 4 8 9 0 6 -4 12 -8 15 -5 3 -9
-1 -9 -9z"/>
<path d="M7880 3555 c0 -16 27 -32 37 -21 7 7 -16 36 -28 36 -5 0 -9 -7 -9
-15z"/>
<path d="M7478 3205 c-47 -107 -30 -178 42 -178 41 0 70 32 70 78 0 33 -57
157 -75 162 -5 2 -22 -26 -37 -62z m73 -29 c32 -70 24 -108 -23 -119 -32 -8
-58 13 -58 49 0 35 40 125 52 118 6 -4 19 -25 29 -48z"/>
<path d="M7500 3115 c-9 -11 -8 -19 5 -37 17 -23 17 -23 10 11 -6 26 -4 32 5
26 9 -5 11 -4 6 3 -9 15 -11 15 -26 -3z"/>
<path d="M3043 3123 c-25 -25 -81 -31 -101 -11 -9 9 -12 9 -12 0 0 -15 33 -32
64 -32 27 0 81 40 75 56 -2 5 -14 -1 -26 -13z"/>
<path d="M3035 3075 c-16 -8 -39 -11 -49 -8 -14 4 -18 1 -13 -11 3 -8 -1 -22
-9 -31 -9 -8 -11 -16 -5 -16 6 -1 17 -2 24 -3 6 -1 11 -7 10 -14 -2 -7 6 -12
16 -12 11 0 22 -4 25 -9 4 -5 -10 -5 -31 0 -21 4 -39 6 -41 5 -1 -2 23 -27 55
-55 32 -28 59 -47 61 -41 3 7 12 5 28 -5 27 -18 31 -9 9 22 -8 12 -12 28 -9
36 3 10 -11 24 -43 43 l-48 29 35 6 35 6 -32 8 c-37 8 -42 21 -14 30 20 6 50
36 35 34 -5 0 -22 -7 -39 -14z m51 -130 c10 -8 15 -14 9 -14 -5 0 -19 6 -29
14 -11 8 -15 15 -10 15 6 0 19 -7 30 -15z m-24 -16 c43 -31 27 -35 -17 -4 -21
14 -32 25 -25 25 6 0 25 -9 42 -21z"/>
<path d="M2942 3058 c2 -6 10 -14 16 -16 7 -2 10 2 6 12 -7 18 -28 22 -22 4z"/>
<path d="M2979 2902 c43 -31 101 -92 117 -124 14 -26 5 -22 -54 32 -39 35 -73
69 -76 77 -3 7 -10 13 -16 13 -15 0 5 -37 40 -75 33 -36 110 -145 110 -156 0
-5 -17 10 -38 33 -29 31 -42 39 -55 32 -14 -8 -10 -18 29 -78 24 -38 44 -79
43 -90 0 -20 -1 -20 -9 2 -12 29 -61 94 -67 88 -6 -5 27 -66 43 -81 6 -5 17
-25 24 -43 15 -38 22 -33 38 24 22 78 16 111 -34 181 -32 45 -40 62 -26 54 22
-12 62 -63 62 -79 0 -6 5 -14 11 -18 9 -5 10 6 7 38 -6 51 -38 127 -53 128 -5
0 -30 14 -54 30 -46 31 -84 42 -42 12z m62 -209 c13 -16 12 -17 -3 -4 -10 7
-18 15 -18 17 0 8 8 3 21 -13z m59 -92 c0 -9 -8 -3 -20 17 -25 41 -25 54 0 23
11 -13 20 -31 20 -40z"/>
<path d="M6780 2871 c-37 -12 -93 -42 -87 -48 3 -2 16 1 29 7 18 9 15 5 -9
-18 -18 -17 -33 -38 -33 -46 0 -13 12 -10 58 15 72 38 134 88 110 89 -10 0
-18 -4 -18 -10 0 -5 -15 -9 -32 -9 -22 1 -26 3 -13 6 11 3 24 9 30 14 11 11 1
11 -35 0z m-15 -57 c-31 -24 -55 -36 -55 -27 0 10 51 42 65 42 6 0 1 -7 -10
-15z"/>
<path d="M6766 2775 c-51 -24 -87 -73 -101 -134 -9 -42 11 -40 28 2 8 17 22
38 31 46 12 10 13 16 6 21 -7 4 8 20 39 39 28 17 51 35 51 41 0 5 -1 10 -2 9
-2 0 -25 -11 -52 -24z"/>
<path d="M6828 2776 c-20 -15 -24 -31 -5 -20 6 4 -14 -20 -45 -52 -32 -33 -58
-63 -58 -68 0 -4 -11 -21 -25 -38 -20 -24 -25 -39 -23 -80 1 -27 6 -52 10 -54
4 -3 8 -20 9 -37 0 -32 0 -32 11 -7 10 24 10 24 18 5 6 -13 9 -15 9 -5 1 16
20 55 52 107 30 49 17 40 -27 -17 -21 -27 -39 -48 -41 -46 -8 7 23 75 54 117
18 26 33 50 33 54 0 4 -25 -14 -55 -40 -83 -71 -67 -31 30 75 51 55 78 96 73
109 -2 6 -10 4 -20 -3z m-116 -257 c-3 -21 -7 -27 -13 -18 -4 7 -3 21 2 31 14
25 16 23 11 -13z"/>
<path d="M7006 2725 c15 -27 23 -45 16 -41 -29 18 -8 -15 28 -44 22 -17 40
-36 40 -41 0 -20 -51 -7 -99 25 -28 19 -51 31 -51 26 0 -16 60 -58 92 -65 18
-4 36 -12 39 -16 3 -5 20 -13 37 -18 25 -8 36 -6 48 6 15 15 13 18 -22 37
l-39 20 35 7 c19 3 26 7 15 8 -27 2 -81 36 -94 59 -10 18 -8 18 39 9 90 -18
93 2 5 32 -44 16 -88 32 -99 36 -16 7 -14 1 10 -40z m137 -152 c-7 -2 -21 -2
-30 0 -10 3 -4 5 12 5 17 0 24 -2 18 -5z"/>
<path d="M6779 2733 c-13 -15 -12 -15 9 -4 23 12 28 21 13 21 -5 0 -15 -7 -22
-17z"/>
<path d="M2961 2530 c14 -31 19 -36 19 -24 0 6 -7 19 -16 30 -14 18 -14 18 -3
-6z"/>
<path d="M2936 2510 c3 -14 11 -32 16 -40 6 -10 7 -7 2 10 -3 14 -11 32 -16
40 -6 10 -7 7 -2 -10z"/>
<path d="M3272 2478 c-1 -13 -4 -45 -7 -73 -4 -27 -2 -61 3 -75 l10 -25 12 30
c12 32 4 165 -10 165 -4 0 -8 -10 -8 -22z"/>
<path d="M7092 2394 c10 -10 20 -15 24 -12 3 4 -5 12 -18 18 -22 12 -22 12 -6
-6z"/>
<path d="M2902 2320 c0 -14 2 -19 5 -12 2 6 2 18 0 25 -3 6 -5 1 -5 -13z"/>
<path d="M2921 2324 c0 -11 3 -14 6 -6 3 7 2 16 -1 19 -3 4 -6 -2 -5 -13z"/>
<path d="M6851 2174 c0 -11 3 -14 6 -6 3 7 2 16 -1 19 -3 4 -6 -2 -5 -13z"/>
<path d="M2812 2100 c0 -19 2 -27 5 -17 2 9 2 25 0 35 -3 9 -5 1 -5 -18z"/>
<path d="M6882 2105 c0 -16 2 -22 5 -12 2 9 2 23 0 30 -3 6 -5 -1 -5 -18z"/>
<path d="M6932 2100 c0 -14 2 -19 5 -12 2 6 2 18 0 25 -3 6 -5 1 -5 -13z"/>
<path d="M6953 2045 c0 -38 2 -53 4 -32 2 20 2 52 0 70 -2 17 -4 1 -4 -38z"/>
<path d="M2691 2074 c0 -11 3 -14 6 -6 3 7 2 16 -1 19 -3 4 -6 -2 -5 -13z"/>
<path d="M6488 2015 c-15 -24 -18 -150 -4 -180 l13 -30 8 37 c8 41 -6 189 -17
173z"/>
</g>
</svg>
